/* XPM */
static char *p1[] = {
/* columns rows colors chars-per-pixel */
"22 37 124 2 ",
"   c None",
".  c #4F2913",
"X  c #512A14",
"o  c #532F18",
"O  c #563621",
"+  c #5A3A25",
"@  c #5C3E2A",
"#  c #5E412E",
"$  c #574537",
"%  c #594537",
"&  c #574638",
"*  c #594639",
"=  c #5B4A3C",
"-  c #604532",
";  c #654B39",
":  c #5F4E40",
">  c #604F42",
",  c #645445",
"<  c #665847",
"1  c #63574C",
"2  c #64594E",
"3  c #695C4C",
"4  c #645C53",
"5  c #695E54",
"6  c #676057",
"7  c #6B6155",
"8  c #6E655B",
"9  c #70675D",
"0  c #70685E",
"q  c #6F6A61",
"w  c #736C61",
"e  c #767067",
"r  c #777169",
"t  c #77716A",
"y  c #78736A",
"u  c #78726B",
"i  c #7A756B",
"p  c #7B756B",
"a  c #7A756C",
"s  c #7B766C",
"d  c #7B766D",
"f  c #7C766D",
"g  c #7D766D",
"h  c #7C776D",
"j  c #7D776D",
"k  c #7C776E",
"l  c #7D776E",
"z  c #7E776E",
"x  c #7E786E",
"c  c #7E786F",
"v  c #807B72",
"b  c #838075",
"n  c #838175",
"m  c #858377",
"M  c #848276",
"N  c #858378",
"B  c #868378",
"V  c #868478",
"C  c #87857B",
"Z  c #868479",
"A  c #88857B",
"S  c #88867B",
"D  c #88867C",
"F  c #8B887E",
"G  c #8C887E",
"H  c #8C897F",
"J  c #8D897F",
"K  c #8C8A7F",
"L  c #8D8A7F",
"P  c #8E8A7F",
"I  c #8A887D",
"U  c #8D8980",
"Y  c #8C8A80",
"T  c #8D8A80",
"R  c #8D8B80",
"E  c #8E8A80",
"W  c #8F8B80",
"Q  c #8E8A81",
"!  c #8F8B81",
"~  c #8F8C81",
"^  c #8E8C82",
"/  c #8F8C82",
"(  c #8E8C83",
")  c #8F8C84",
"_  c #8F8D84",
"`  c #8E8C82",
"'  c #908C81",
"]  c #908D81",
"[  c #918D81",
"{  c #908C82",
"}  c #908D82",
"|  c #918D82",
" . c #908C83",
".. c #918D83",
"X. c #918E83",
"o. c #928E82",
"O. c #928E83",
"+. c #928E84",
"@. c #938F84",
"#. c #918F87",
"$. c #929087",
"%. c #939087",
"&. c #929088",
"*. c #939088",
"=. c #939188",
"-. c #939189",
";. c #949189",
":. c #949289",
">. c #959289",
",. c #94928A",
"<. c #95938B",
"1. c #96938B",
"2. c #96938C",
"3. c #96948C",
"4. c #97948D",
"5. c #97958D",
"6. c #97958E",
"7. c #95938B",
"8. c #98958F",
"9. c #989690",
"0. c #999791",
"q. c #9A9790",
"w. c #9A9791",
"e. c #9A9890",
/* pixels */
"  + @ # - - - - - - - # # # # @ @ @ + + +   ",
"+ i i v v v &.D C C D D C D D &.8 8 5 5 5 X ",
"@ i i i v v #.D D D D D D D D &.0 8 5 5 4 X ",
"@ i i i i i &.Y Y Y Y L L D D &.0 5 5 5 5 X ",
"@ i i i i i &.Y Y Y Y Y Y Y L %.0 7 7 5 5 X ",
"@ i i i i i &.Y Y Y Y Y Y Y Y &.0 0 7 5 5 X ",
"@ i i i i i 0.Y Y Y Y Y Y Y L &.w 0 0 7 5 X ",
"@ i i c c c 0.e.&.&.8.8.8.8.&.&.w 0 0 7 7 X ",
"@ w i i c 0.L L L Y Y L L L L L &.0 8 2 2 X ",
"@ w i i 0.L L L Y Y Y Y Y Y L L L &.8 2 2 X ",
"@ w w &.Y Y #.#.#.#.Y Y #.#.#.L L #.&.5 2 o ",
"@ w &.Y #.Y Y #.#.Y Y #.#.#.#.#.#.#.#.&.4 o ",
"@ 8.#.#.#.#.#.#.#.#.#.#.#.#.#.#.#.#.#.#.&.o ",
"X 8.8.&.&.&.&.&.&.&.&.&.&.&.&.%.%.&.&.&.&.X ",
"X i 4 4 4 4 4 4 4 4 4 4 4 4 4 4 4 4 4 4 w X ",
"X i 4 4 4 4 4 4 4 4 4 4 4 4 4 4 4 4 2 4 i . ",
"X i 4 4 4 4 4 4 4 4 4 4 4 4 4 4 4 2 2 4 e . ",
"X X X X X X X X X X X X X X X X X X . . . . ",
"      X * * X % * * * * % % % X * * .       ",
"      X * * X % * % * % % % % . * * .       ",
"      X 8 5 X , , > : : : * * . 2 8 .       ",
"  + + X 8 5 5 X X X X X X X . 1 1 8 . O O   ",
"; Y C X 8 5 5 5 5 5 4 4 2 2 1 1 1 8 . , , . ",
"- Y n 3 X 1 * * * * * * * & & $ $ . , , , . ",
"- Y C 5 7 X , * * * * * * * & & . < < 2 , X ",
"- Y C 7 7 X 8 7 7 7 7 7 2 2 1 8 . 3 3 3 2 . ",
"# Y C 7 7 X 0 7 7 7 5 5 5 2 2 8 . 3 3 3 5 . ",
"# Y C 7 7 X 0 4 8 7 7 5 5 5 5 8 . 3 7 n Y O ",
"# Y n n 0 X 0 4 8 7 7 5 5 5 4 8 . 7 n n Y O ",
"@ &.C n C X 0 4 4 4 4 4 5 4 5 8 . 7 n n Y O ",
"@ &.Y n C D X X X X X X X X X . n n n n Y O ",
"@ &.Y L C D C C C C C C C n n n n n n n Y O ",
"O &.&.&.&.&.&.&.8.8.&.&.&.&.&.&.&.&.&.&.&.. ",
"X w 8 7 7 4 4 4 4 4 4 4 4 4 4 4 4 4 4 4 q . ",
"X w 8 7 4 4 4 4 4 4 4 4 4 4 4 4 4 4 4 4 q . ",
"X w 6 4 4 4 4 4 4 4 4 4 4 4 4 4 4 4 4 4 q . ",
"X X X X X X X X X X X X X X X X . . . . . . "
};
