/* XPM */
static char * cxc_xpm[] = {
"32 32 508 2",
"  	c None",
". 	c #3F3B93",
"+ 	c #4A4996",
"@ 	c #4A4997",
"# 	c #3E3A91",
"$ 	c #444295",
"% 	c #CADBDF",
"& 	c #C7D7DC",
"* 	c #C7D8DD",
"= 	c #C8D9DE",
"- 	c #C4D4DB",
"; 	c #B9CAD4",
"> 	c #BACBD5",
", 	c #C8D9DD",
"' 	c #C8D8DD",
") 	c #C5D5DB",
"! 	c #B9CAD5",
"~ 	c #C3D3DA",
"{ 	c #CADBE0",
"] 	c #231B56",
"^ 	c #C2D2D9",
"/ 	c #BECED5",
"( 	c #A8B7C3",
"_ 	c #9D9EB6",
": 	c #7E2672",
"< 	c #84447B",
"[ 	c #742B79",
"} 	c #730072",
"| 	c #9B9BAE",
"1 	c #AFBFCB",
"2 	c #B1C0CE",
"3 	c #A8B9CB",
"4 	c #A5B7CA",
"5 	c #A7B8CA",
"6 	c #A7B8CB",
"7 	c #B2C0CE",
"8 	c #B0BFCD",
"9 	c #A0A4BA",
"0 	c #7B2071",
"a 	c #87467B",
"b 	c #732A79",
"c 	c #730473",
"d 	c #9894A9",
"e 	c #B0C0CB",
"f 	c #AAB8C9",
"g 	c #BECED6",
"h 	c #C5D6DC",
"i 	c #251E5B",
"j 	c #B1C0C8",
"k 	c #000048",
"l 	c #813B7C",
"m 	c #F4891C",
"n 	c #FF9B3A",
"o 	c #E47929",
"p 	c #E37420",
"q 	c #791227",
"r 	c #4D5D93",
"s 	c #515F9F",
"t 	c #893F74",
"u 	c #AD6471",
"v 	c #8D396E",
"w 	c #913F6E",
"x 	c #8E406F",
"y 	c #47568B",
"z 	c #5A67A1",
"A 	c #70277B",
"B 	c #F18516",
"C 	c #FF9D3B",
"D 	c #E57B2A",
"E 	c #E37320",
"F 	c #892925",
"G 	c #46598F",
"H 	c #18008C",
"I 	c #B2C1CE",
"J 	c #B3C1CA",
"K 	c #00005B",
"L 	c #965F84",
"M 	c #FF9A39",
"N 	c #FFA54A",
"O 	c #ED8A3F",
"P 	c #DB6E30",
"Q 	c #7D3543",
"R 	c #5D6D9A",
"S 	c #29449B",
"T 	c #CB623D",
"U 	c #FFA03E",
"V 	c #F48F37",
"W 	c #DB6F28",
"X 	c #D66C2B",
"Y 	c #001160",
"Z 	c #6674A8",
"` 	c #865383",
" .	c #FE9938",
"..	c #F08E41",
"+.	c #DA6D30",
"@.	c #8B3D40",
"#.	c #566895",
"$.	c #3B3993",
"%.	c #B4C2CF",
"&.	c #8E5784",
"*.	c #E77E2B",
"=.	c #E07A39",
"-.	c #D97136",
";.	c #DA6C2F",
">.	c #7B3142",
",.	c #1C429B",
"'.	c #EB8E51",
").	c #FFA047",
"!.	c #FFA349",
"~.	c #D66D35",
"{.	c #D16B37",
"].	c #002265",
"^.	c #6774A8",
"/.	c #7E4B83",
"(.	c #E77E2A",
"_.	c #DA7237",
":.	c #D96C30",
"<.	c #883A40",
"[.	c #00005D",
"}.	c #976488",
"|.	c #FF9E3A",
"1.	c #F99844",
"2.	c #FA9845",
"3.	c #FF9F44",
"4.	c #8D5048",
"5.	c #586E9D",
"6.	c #30499C",
"7.	c #D16E48",
"8.	c #DB7336",
"9.	c #DB7337",
"0.	c #D46A34",
"a.	c #CF6736",
"b.	c #002466",
"c.	c #6576A9",
"d.	c #835687",
"e.	c #F99845",
"f.	c #9E5C47",
"g.	c #4D6798",
"h.	c #3D3B94",
"i.	c #B1C1CA",
"j.	c #610038",
"k.	c #DA6E34",
"l.	c #EC8638",
"m.	c #FFA244",
"n.	c #DB6F30",
"o.	c #71384E",
"p.	c #001D91",
"q.	c #F29755",
"r.	c #FE9D46",
"s.	c #FE9C46",
"t.	c #F89948",
"u.	c #000063",
"v.	c #6F4B8E",
"w.	c #D96D28",
"x.	c #E98236",
"y.	c #FFA245",
"z.	c #EF8A39",
"A.	c #DB6F2F",
"B.	c #7E3F4C",
"C.	c #000081",
"D.	c #B4C2D0",
"E.	c #AFC0CA",
"F.	c #833A38",
"G.	c #E28E68",
"H.	c #002C96",
"I.	c #413B92",
"J.	c #3C3792",
"K.	c #183596",
"L.	c #BF655E",
"M.	c #642F4F",
"N.	c #C96739",
"O.	c #D26939",
"P.	c #F9994B",
"Q.	c #FB9C4C",
"R.	c #FA9B4C",
"S.	c #D1693A",
"T.	c #CE6938",
"U.	c #6A4153",
"V.	c #EA9362",
"W.	c #002B96",
"X.	c #423B92",
"Y.	c #1D3596",
"Z.	c #B76165",
"`.	c #843E41",
" +	c #000080",
".+	c #B4C3D0",
"++	c #7B4684",
"@+	c #F58A1C",
"#+	c #F99438",
"$+	c #DD7127",
"%+	c #E3741F",
"&+	c #7B3B4C",
"*+	c #000060",
"=+	c #E68F54",
"-+	c #7A5289",
";+	c #62498F",
">+	c #4E378E",
",+	c #4F398E",
"'+	c #65448B",
")+	c #C36234",
"!+	c #000066",
"~+	c #6D428A",
"{+	c #F28616",
"]+	c #FC9739",
"^+	c #8A444A",
"/+	c #000050",
"(+	c #0E0080",
"_+	c #8D5684",
":+	c #F68F34",
"<+	c #ED893F",
"[+	c #7E3743",
"}+	c #586499",
"|+	c #00379F",
"1+	c #CD653C",
"2+	c #FFA13B",
"3+	c #EA812B",
"4+	c #DD7023",
"5+	c #D76D28",
"6+	c #556088",
"7+	c #7F4D86",
"8+	c #F48D32",
"9+	c #FFA44A",
"0+	c #F08D41",
"a+	c #8B4147",
"b+	c #415376",
"c+	c #302989",
"d+	c #966084",
"e+	c #F69034",
"f+	c #EE8B40",
"g+	c #771B39",
"h+	c #94A8BA",
"i+	c #455FA3",
"j+	c #DE7F4C",
"k+	c #FF9F47",
"l+	c #D16A36",
"m+	c #23406F",
"n+	c #9CB0C9",
"o+	c #81487F",
"p+	c #F69033",
"q+	c #E27D3A",
"r+	c #852A35",
"s+	c #8DA2B6",
"t+	c #5A60A0",
"u+	c #B3C1CE",
"v+	c #8F5D88",
"w+	c #F9933F",
"x+	c #813B3E",
"y+	c #90A8BC",
"z+	c #475FA4",
"A+	c #DD7D4B",
"B+	c #E7823B",
"C+	c #E6823C",
"D+	c #D46933",
"E+	c #CE6635",
"F+	c #25406E",
"G+	c #9AAFC7",
"H+	c #774583",
"I+	c #F79032",
"J+	c #F8933F",
"K+	c #92493D",
"L+	c #87A0B6",
"M+	c #5B609F",
"N+	c #4E0043",
"O+	c #CA6952",
"P+	c #F08A3B",
"Q+	c #FF9C44",
"R+	c #F08A3D",
"S+	c #CB6735",
"T+	c #7B6375",
"U+	c #003398",
"V+	c #EA8E53",
"W+	c #F49242",
"X+	c #F49142",
"Y+	c #F59343",
"Z+	c #F19245",
"`+	c #000067",
" @	c #7C6FA0",
".@	c #C6634A",
"+@	c #EE873A",
"@@	c #FF9B44",
"#@	c #F28C3E",
"$@	c #CD6835",
"%@	c #816371",
"&@	c #222689",
"*@	c #7C343A",
"=@	c #FF9B3F",
"-@	c #FBAE54",
";@	c #FFD46E",
">@	c #FEB055",
",@	c #E97B33",
"'@	c #61274E",
")@	c #B3594E",
"!@	c #D87039",
"~@	c #FE9843",
"{@	c #FF9A44",
"]@	c #FF9943",
"^@	c #BC5F41",
"/@	c #683F5F",
"(@	c #FF9C3F",
"_@	c #FBA951",
":@	c #FFD56E",
"<@	c #FFD46D",
"[@	c #FEB558",
"}@	c #EC7D33",
"|@	c #7C3643",
"1@	c #B0C1CA",
"2@	c #640033",
"3@	c #ED9C48",
"4@	c #FFDC72",
"5@	c #FFD870",
"6@	c #EC9B4A",
"7@	c #55004D",
"8@	c #E9904A",
"9@	c #FF9742",
"0@	c #FFD36D",
"a@	c #FFD66F",
"b@	c #FC9542",
"c@	c #C96439",
"d@	c #4F1952",
"e@	c #EB9443",
"f@	c #EFA44F",
"g@	c #7C253D",
"h@	c #99858E",
"i@	c #FFDB6E",
"j@	c #FBD571",
"k@	c #FFDB73",
"l@	c #927B5D",
"m@	c #00138D",
"n@	c #C05651",
"o@	c #F8CE6D",
"p@	c #FBD572",
"q@	c #F9D270",
"r@	c #C65B3A",
"s@	c #000069",
"t@	c #8A7991",
"u@	c #9D8157",
"v@	c #8398B1",
"w@	c #575C9E",
"x@	c #C3D3D9",
"y@	c #B6C5D1",
"z@	c #55569C",
"A@	c #595FA0",
"B@	c #4252A1",
"C@	c #4554A1",
"D@	c #5A60A2",
"E@	c #6265A0",
"F@	c #5363A2",
"G@	c #4655A1",
"H@	c #5263A3",
"I@	c #6365A1",
"J@	c #4352A1",
"K@	c #5860A2",
"L@	c #5C5E9D",
"M@	c #515299",
"N@	c #3E3B88",
"O@	c #C4D4DA",
"P@	c #CADADE",
"Q@	c #C7D8DE",
"R@	c #261E5B",
"S@	c #1E1355",
"T@	c #A8B6C8",
"U@	c #A5B3C6",
"V@	c #22195A",
"W@	c #1D0F59",
"X@	c #6B77A6",
"Y@	c #6771A3",
"Z@	c #6772A3",
"`@	c #6873A3",
" #	c #6A75A4",
".#	c #6975A4",
"+#	c #6974A4",
"@#	c #1B0B59",
"##	c #54589E",
"$#	c #737FAB",
"%#	c #727DAA",
"&#	c #727EAA",
"*#	c #6972A6",
"=#	c #4E4F9B",
"-#	c #51539C",
";#	c #55599D",
">#	c #50539C",
",#	c #51549C",
"'#	c #737EAB",
")#	c #6B75A7",
"!#	c #4E4F9A",
"~#	c #4E509B",
"{#	c #646CA4",
"]#	c #50539B",
"^#	c #52559E",
"/#	c #190657",
"(#	c #1F2768",
"_#	c #282C68",
":#	c #2B2E69",
"<#	c #212467",
"[#	c #000062",
"}#	c #141B66",
"|#	c #1E2568",
"1#	c #1E2668",
"2#	c #1D2567",
"3#	c #1D2568",
"4#	c #171E66",
"5#	c #0F1565",
"6#	c #1B2467",
"7#	c #2A2E69",
"8#	c #030464",
"9#	c #0B0464",
"0#	c #200E57",
"a#	c #95714B",
"b#	c #8F6C49",
"c#	c #693E2C",
"d#	c #5D2B1E",
"e#	c #704731",
"f#	c #7E583D",
"g#	c #95714D",
"h#	c #936F4B",
"i#	c #926F4B",
"j#	c #96724E",
"k#	c #653826",
"l#	c #8A6645",
"m#	c #744C32",
"n#	c #1D0957",
"o#	c #200F57",
"p#	c #98734B",
"q#	c #926E49",
"r#	c #6B3F29",
"s#	c #5D2919",
"t#	c #805A3B",
"u#	c #98744D",
"v#	c #673924",
"w#	c #8C6844",
"x#	c #96724C",
"y#	c #764D30",
"z#	c #1D0956",
"A#	c #70472E",
"B#	c #5C2818",
"C#	c #96724B",
"D#	c #99754E",
"E#	c #673A24",
"F#	c #8E6A46",
"G#	c #754D32",
"H#	c #744A2D",
"I#	c #1D0A57",
"J#	c #97734A",
"K#	c #906C47",
"L#	c #56190F",
"M#	c #724A32",
"N#	c #866241",
"O#	c #846040",
"P#	c #876342",
"Q#	c #61301E",
"R#	c #8F6A46",
"S#	c #764E33",
"T#	c #94704A",
"U#	c #7F593B",
"V#	c #663319",
"W#	c #926134",
"X#	c #8D5C30",
"Y#	c #8D5D31",
"Z#	c #905F32",
"`#	c #642E16",
" $	c #8E6946",
".$	c #866140",
"+$	c #754C2F",
"@$	c #1D0A56",
"#$	c #926D49",
"$$	c #663A26",
"%$	c #7E4F29",
"&$	c #CC9551",
"*$	c #C6904E",
"=$	c #7C4B26",
"-$	c #8B6744",
";$	c #764E30",
">$	c #210F57",
",$	c #9A754C",
"'$	c #6A3F29",
")$	c #66351D",
"!$	c #976C42",
"~$	c #A67D4E",
"{$	c #A47B4D",
"]$	c #A37A4C",
"^$	c #A2794B",
"/$	c #622E18",
"($	c #99764E",
"_$	c #1E0B57",
":$	c #7D542F",
"<$	c #7A5231",
"[$	c #714527",
"}$	c #602C10",
"|$	c #774E2F",
"1$	c #7A5232",
"2$	c #7A5131",
"3$	c #8E6842",
"4$	c #99754B",
"5$	c #98744A",
"6$	c #9A754B",
"7$	c #89633E",
"8$	c #785030",
"9$	c #602B0F",
"0$	c #764C2C",
"a$	c #7B5332",
"b$	c #774D2A",
"c$	c #210D56",
"d$	c #1F0956",
"e$	c #220E56",
"f$	c #210C56",
"g$	c #251356",
"h$	c #271657",
"i$	c #241156",
". + + + + + @ @ @ @ + + + + + + + + + + + @ @ @ @ + + + + + @ # ",
"$ % & * = - ; > > ; - , ' ' ' ' ' ' ' ' ) ; > > ! ~ = , * & { ] ",
"$ ) ^ / ( _ : < [ } | 1 2 3 4 5 5 6 7 8 9 0 a b c d e f g ^ h i ",
"$ ) ~ j k l m n o p q r s t u v w x y z A B C D E F G H I ~ h i ",
"$ ) ~ J K L M N O P Q R S T U V W X Y Z `  .N ..+.@.#.$.%.~ h i ",
"$ ) ~ J K &.*.=.-.;.>.R ,.'.).!.~.{.].^./.(.=._.:.<.#.$.%.~ h i ",
"$ ) ~ J [.}.|.1.2.3.4.5.6.7.8.9.0.a.b.c.d.|.1.e.3.f.g.h.%.~ h i ",
"$ ) ~ i.j.k.l.m.m.l.n.o.p.q.r.s.r.t.u.v.w.x.y.m.z.A.B.C.D.~ h i ",
"$ ) ~ E.F.G.H.I.J.K.L.M.N.O.P.Q.R.S.T.U.V.W.X.J.Y.Z.`. +.+~ h i ",
"$ ) ~ J [.++@+#+$+%+&+*+=+-+;+>+,+'+)+!+~+{+]+$+E ^+/+(+.+~ h i ",
"$ ) ~ J K _+:+N <+P [+}+|+1+2+3+4+5+*+6+7+8+9+0++.a+b+c+%.~ h i ",
"$ ) ~ J K d+e+f+=.;.g+h+i+j+k+!.~.l+m+n+o+p+f+q+:.r+s+t+u+~ h i ",
"$ ) ~ J [.v+p+<+f+w+x+y+z+A+B+C+D+E+F+G+H+I+<+f+J+K+L+M+u+~ h i ",
"$ ) ~ i.N+O+P+Q+Q+R+S+T+U+V+W+X+Y+Z+`+ @.@+@Q+@@#@$@%@&@%.~ h i ",
"$ ) ~ E.*@=@-@;@;@>@,@'@)@!@~@{@]@-.^@/@(@_@:@<@[@}@|@ +.+~ h i ",
"$ ) ~ 1@2@3@4@5@5@4@6@7@8@9@0@a@:@b@c@d@e@4@5@5@4@f@g@ +.+~ h i ",
"$ ) ~ J [.h@i@j@j@k@l@m@n@o@p@j@j@q@r@s@t@i@j@j@k@u@v@w@u+~ h i ",
"$ ) x@y@z@A@B@C@C@B@D@E@F@G@C@C@C@G@H@I@M+B@C@C@J@K@L@M@y@x@h i ",
"N@* O@) % P@P@P@P@P@P@P@P@P@P@P@P@P@P@P@P@P@P@P@P@P@P@% ) O@Q@R@",
"S@T@U@U@U@U@U@U@U@U@U@U@U@U@U@U@U@U@U@U@U@U@U@U@U@U@U@U@U@U@T@V@",
"W@X@Y@Z@Y@`@ #.#.# #`@Y@Y@+#.#.#.#Y@Z@Y@Z@ #.# #`@Y@Z@Y@+# #X@W@",
"@###$#%#&#*#=#-#-#=#*#&#$#;#>#-#,#'#%#&#)#!#-#~#{#$#%#$#w@]#^#@#",
"/#u.(#_#:#<#u.[#[#[#}#|#1#u.[#[#[#1#2#3#4#[#[#[#5#1#6#7#8#[#9#/#",
"0#a#b#c#d#e#f#g#h#h#h#i#i#h#h#h#h#i#i#i#h#h#h#h#h#i#j#k#l#g#m#n#",
"o#p#q#r#s#t#u#a#a#a#a#a#a#a#a#a#a#a#a#a#a#a#a#a#a#a#u#v#w#x#y#z#",
"o#p#q#A#B#t#u#C#C#C#C#C#C#C#C#C#C#C#C#C#C#C#C#C#C#C#D#E#F#G#H#I#",
"o#J#x#K#L#M#N#O#O#O#O#O#O#O#O#O#O#O#O#O#O#O#O#O#O#O#P#Q#R#S#H#I#",
"o#p#T#U#V#W#X#Y#Y#Y#Y#Y#Y#Y#Y#Y#Y#Y#Y#Y#Y#Y#Y#Y#Y#Y#Z#`# $.$+$@$",
"o#p##$$$%$&$*$*$*$*$*$*$*$*$*$*$*$*$*$*$*$*$*$*$*$*$&$=$-$D#;$z#",
">$,$T#'$)$!$~${${$]$^$^$^$^$^$^$^$^$^$^$^$^$^$^$]$~$!$/$F#($;$z#",
"_$:$<$[$}$|$1$2$|$3$4$5$5$5$5$5$5$5$5$5$5$5$5$6$7$8$|$9$0$a$b$@$",
"/#c$c$c$d$e$c$c$f$g$h$h$h$h$h$h$h$h$h$h$h$h$h$h$i$f$e$d$f$c$e$/#"};
