/* XPM */
static char * cxv_xpm[] = {
"32 32 233 2",
"  	c None",
". 	c #3F3B93",
"+ 	c #4A4996",
"@ 	c #4A4997",
"# 	c #3E3A91",
"$ 	c #444295",
"% 	c #CADBDF",
"& 	c #C7D7DC",
"* 	c #C7D8DD",
"= 	c #C8D9DE",
"- 	c #C8D8DD",
"; 	c #C8D9DD",
"> 	c #CADBE0",
", 	c #231B56",
"' 	c #C5D5DB",
") 	c #C2D2D9",
"! 	c #BECDD5",
"~ 	c #A9B6C2",
"{ 	c #B1C0CE",
"] 	c #B0BFCD",
"^ 	c #B1C0CD",
"/ 	c #AAB8C9",
"( 	c #BECED6",
"_ 	c #C5D6DC",
": 	c #251E5B",
"< 	c #C3D3DA",
"[ 	c #B1BFC8",
"} 	c #000050",
"| 	c #6974A6",
"1 	c #656FA2",
"2 	c #6873A3",
"3 	c #0F008A",
"4 	c #B2C1CE",
"5 	c #B2C1C9",
"6 	c #120061",
"7 	c #727DAA",
"8 	c #6E79A6",
"9 	c #717CA7",
"0 	c #383591",
"a 	c #B4C2CF",
"b 	c #02005D",
"c 	c #6973A1",
"d 	c #656F9C",
"e 	c #67729D",
"f 	c #332E8F",
"g 	c #B3C1CA",
"h 	c #000047",
"i 	c #444873",
"j 	c #585F7D",
"k 	c #565D7C",
"l 	c #585F7A",
"m 	c #2B2287",
"n 	c #070061",
"o 	c #8796B9",
"p 	c #A9BCCD",
"q 	c #A6B8CB",
"r 	c #ABBECE",
"s 	c #565B9D",
"t 	c #B3C1CE",
"u 	c #01005F",
"v 	c #8392B4",
"w 	c #A4B6C8",
"x 	c #A1B3C6",
"y 	c #A6B8C9",
"z 	c #53589B",
"A 	c #B2C1CA",
"B 	c #000061",
"C 	c #818FB3",
"D 	c #9EB0C4",
"E 	c #A3B5C7",
"F 	c #51559A",
"G 	c #C3D3D9",
"H 	c #B6C5D1",
"I 	c #54559C",
"J 	c #5C5E9D",
"K 	c #585A9C",
"L 	c #595A9C",
"M 	c #58599B",
"N 	c #515299",
"O 	c #3E3B88",
"P 	c #C4D4DA",
"Q 	c #CADADE",
"R 	c #C7D8DE",
"S 	c #261E5B",
"T 	c #1E1355",
"U 	c #A8B6C8",
"V 	c #A5B3C6",
"W 	c #22195A",
"X 	c #1D0F59",
"Y 	c #6B77A6",
"Z 	c #6771A3",
"` 	c #6772A3",
" .	c #6A75A4",
"..	c #6975A4",
"+.	c #6974A4",
"@.	c #1B0B59",
"#.	c #54589E",
"$.	c #737FAB",
"%.	c #727EAA",
"&.	c #6972A6",
"*.	c #4E4F9B",
"=.	c #51539C",
"-.	c #55599D",
";.	c #50539C",
">.	c #51549C",
",.	c #737EAB",
"'.	c #6B75A7",
").	c #4E4F9A",
"!.	c #4E509B",
"~.	c #646CA4",
"{.	c #575C9E",
"].	c #50539B",
"^.	c #52559E",
"/.	c #190657",
"(.	c #000063",
"_.	c #1F2768",
":.	c #282C68",
"<.	c #2B2E69",
"[.	c #212467",
"}.	c #000062",
"|.	c #141B66",
"1.	c #1E2568",
"2.	c #1E2668",
"3.	c #1D2567",
"4.	c #1D2568",
"5.	c #171E66",
"6.	c #0F1565",
"7.	c #1B2467",
"8.	c #2A2E69",
"9.	c #030464",
"0.	c #0B0464",
"a.	c #200E57",
"b.	c #95714B",
"c.	c #8F6C49",
"d.	c #693E2C",
"e.	c #5D2B1E",
"f.	c #704731",
"g.	c #7E583D",
"h.	c #95714D",
"i.	c #936F4B",
"j.	c #926F4B",
"k.	c #96724E",
"l.	c #653826",
"m.	c #8A6645",
"n.	c #744C32",
"o.	c #1D0957",
"p.	c #200F57",
"q.	c #98734B",
"r.	c #926E49",
"s.	c #6B3F29",
"t.	c #5D2919",
"u.	c #805A3B",
"v.	c #98744D",
"w.	c #673924",
"x.	c #8C6844",
"y.	c #96724C",
"z.	c #764D30",
"A.	c #1D0956",
"B.	c #70472E",
"C.	c #5C2818",
"D.	c #96724B",
"E.	c #99754E",
"F.	c #673A24",
"G.	c #8E6A46",
"H.	c #754D32",
"I.	c #744A2D",
"J.	c #1D0A57",
"K.	c #97734A",
"L.	c #906C47",
"M.	c #56190F",
"N.	c #724A32",
"O.	c #866241",
"P.	c #846040",
"Q.	c #876342",
"R.	c #61301E",
"S.	c #8F6A46",
"T.	c #764E33",
"U.	c #94704A",
"V.	c #7F593B",
"W.	c #663319",
"X.	c #926134",
"Y.	c #8D5C30",
"Z.	c #8D5D31",
"`.	c #905F32",
" +	c #642E16",
".+	c #8E6946",
"++	c #866140",
"@+	c #754C2F",
"#+	c #1D0A56",
"$+	c #926D49",
"%+	c #663A26",
"&+	c #7E4F29",
"*+	c #CC9551",
"=+	c #C6904E",
"-+	c #7C4B26",
";+	c #8B6744",
">+	c #764E30",
",+	c #210F57",
"'+	c #9A754C",
")+	c #6A3F29",
"!+	c #66351D",
"~+	c #976C42",
"{+	c #A67D4E",
"]+	c #A47B4D",
"^+	c #A37A4C",
"/+	c #A2794B",
"(+	c #622E18",
"_+	c #99764E",
":+	c #1E0B57",
"<+	c #7D542F",
"[+	c #7A5231",
"}+	c #714527",
"|+	c #602C10",
"1+	c #774E2F",
"2+	c #7A5232",
"3+	c #7A5131",
"4+	c #8E6842",
"5+	c #99754B",
"6+	c #98744A",
"7+	c #9A754B",
"8+	c #89633E",
"9+	c #785030",
"0+	c #602B0F",
"a+	c #764C2C",
"b+	c #7B5332",
"c+	c #774D2A",
"d+	c #210D56",
"e+	c #1F0956",
"f+	c #220E56",
"g+	c #210C56",
"h+	c #251356",
"i+	c #271657",
"j+	c #241156",
". + + + + + + + + + + + + + + + + + + + + + + + + + + + + + @ # ",
"$ % & * = - - - - - - - - - - - - - - - - - - - - - - ; * & > , ",
"$ ' ) ! ~ { ] ] ] ] ] ] ] ] ] ] ] ] ] ] ] ] ] ] ] ] ^ / ( ) _ : ",
"$ ' < [ } | 1 1 1 1 1 1 1 1 1 1 1 1 1 1 1 1 1 1 1 1 2 3 4 < _ : ",
"$ ' < 5 6 7 8 8 8 8 8 8 8 8 8 8 8 8 8 8 8 8 8 8 8 8 9 0 a < _ : ",
"$ ' < 5 6 7 8 8 8 8 8 8 8 8 8 8 8 8 8 8 8 8 8 8 8 8 9 0 a < _ : ",
"$ ' < 5 6 7 8 8 8 8 8 8 8 8 8 8 8 8 8 8 8 8 8 8 8 8 9 0 a < _ : ",
"$ ' < 5 6 7 8 8 8 8 8 8 8 8 8 8 8 8 8 8 8 8 8 8 8 8 9 0 a < _ : ",
"$ ' < 5 6 7 8 8 8 8 8 8 8 8 8 8 8 8 8 8 8 8 8 8 8 8 9 0 a < _ : ",
"$ ' < 5 b c d d d d d d d d d d d d d d d d d d d d e f a < _ : ",
"$ ' < g h i j k k k k k k k k k k k k k k k k k k k l m a < _ : ",
"$ ' < 5 n o p q q q q q q q q q q q q q q q q q q q r s t < _ : ",
"$ ' < 5 u v w x x x x x x x x x x x x x x x x x x x y z t < _ : ",
"$ ' < 5 u v w x x x x x x x x x x x x x x x x x x x y z t < _ : ",
"$ ' < 5 u v w x x x x x x x x x x x x x x x x x x x y z t < _ : ",
"$ ' < 5 u v w x x x x x x x x x x x x x x x x x x x y z t < _ : ",
"$ ' < A B C x D D D D D D D D D D D D D D D D D D D E F t < _ : ",
"$ ' G H I J K L L L L L L L L L L L L L L L L L L L M N H G _ : ",
"O * P ' % Q Q Q Q Q Q Q Q Q Q Q Q Q Q Q Q Q Q Q Q Q Q % ' P R S ",
"T U V V V V V V V V V V V V V V V V V V V V V V V V V V V V U W ",
"X Y Z ` Z 2  ..... .2 Z Z +.......Z ` Z `  ... .2 Z ` Z +. .Y X ",
"@.#.$.7 %.&.*.=.=.*.&.%.$.-.;.=.>.,.7 %.'.).=.!.~.$.7 $.{.].^.@.",
"/.(._.:.<.[.(.}.}.}.|.1.2.(.}.}.}.2.3.4.5.}.}.}.6.2.7.8.9.}.0./.",
"a.b.c.d.e.f.g.h.i.i.i.j.j.i.i.i.i.j.j.j.i.i.i.i.i.j.k.l.m.h.n.o.",
"p.q.r.s.t.u.v.b.b.b.b.b.b.b.b.b.b.b.b.b.b.b.b.b.b.b.v.w.x.y.z.A.",
"p.q.r.B.C.u.v.D.D.D.D.D.D.D.D.D.D.D.D.D.D.D.D.D.D.D.E.F.G.H.I.J.",
"p.K.y.L.M.N.O.P.P.P.P.P.P.P.P.P.P.P.P.P.P.P.P.P.P.P.Q.R.S.T.I.J.",
"p.q.U.V.W.X.Y.Z.Z.Z.Z.Z.Z.Z.Z.Z.Z.Z.Z.Z.Z.Z.Z.Z.Z.Z.`. +.+++@+#+",
"p.q.$+%+&+*+=+=+=+=+=+=+=+=+=+=+=+=+=+=+=+=+=+=+=+=+*+-+;+E.>+A.",
",+'+U.)+!+~+{+]+]+^+/+/+/+/+/+/+/+/+/+/+/+/+/+/+^+{+~+(+G._+>+A.",
":+<+[+}+|+1+2+3+1+4+5+6+6+6+6+6+6+6+6+6+6+6+6+7+8+9+1+0+a+b+c+#+",
"/.d+d+d+e+f+d+d+g+h+i+i+i+i+i+i+i+i+i+i+i+i+i+i+j+g+f+e+g+d+f+/."};
