/* XPM */
static char * floor_xpm[] = {
"32 32 199 2",
"  	c None",
". 	c #3ABE41",
"+ 	c #38BD41",
"@ 	c #39BD41",
"# 	c #39BE41",
"$ 	c #35BC40",
"% 	c #5DD348",
"& 	c #37BD41",
"* 	c #65D94A",
"= 	c #36BC40",
"- 	c #5AD147",
"; 	c #43C342",
"> 	c #45C443",
", 	c #47C543",
"' 	c #55CE46",
") 	c #6FE24C",
"! 	c #51CB45",
"~ 	c #5DD448",
"{ 	c #4FCA45",
"] 	c #44C443",
"^ 	c #38BE41",
"/ 	c #57C445",
"( 	c #37BE41",
"_ 	c #50CA45",
": 	c #60CF48",
"< 	c #38BA40",
"[ 	c #53CC45",
"} 	c #6EE04C",
"| 	c #3BBE41",
"1 	c #4EC945",
"2 	c #36B740",
"3 	c #66D74A",
"4 	c #41AC3F",
"5 	c #6CE04C",
"6 	c #2BA63D",
"7 	c #3BBF41",
"8 	c #4FC945",
"9 	c #6CDF4C",
"0 	c #44C343",
"a 	c #63D849",
"b 	c #54CD46",
"c 	c #68DA4A",
"d 	c #32B13F",
"e 	c #3ABD41",
"f 	c #68DB4A",
"g 	c #60D548",
"h 	c #30AF3E",
"i 	c #40BA41",
"j 	c #6EE24C",
"k 	c #5CCB47",
"l 	c #6EE14C",
"m 	c #3FBB41",
"n 	c #3ABF41",
"o 	c #2FAD3E",
"p 	c #32AC3E",
"q 	c #2CA83D",
"r 	c #3BC041",
"s 	c #65D449",
"t 	c #6ADC4B",
"u 	c #47B741",
"v 	c #44BC42",
"w 	c #4EB943",
"x 	c #39BF41",
"y 	c #4DBA42",
"z 	c #4ABB42",
"A 	c #26973B",
"B 	c #28983B",
"C 	c #27993B",
"D 	c #2FA83D",
"E 	c #25943A",
"F 	c #3BC142",
"G 	c #46C443",
"H 	c #4BC844",
"I 	c #5ED448",
"J 	c #34BB40",
"K 	c #50CB45",
"L 	c #31BB40",
"M 	c #57CF46",
"N 	c #3CBF41",
"O 	c #6CDE4B",
"P 	c #30B13E",
"Q 	c #6FE14C",
"R 	c #67DD4B",
"S 	c #1F9C3B",
"T 	c #63D449",
"U 	c #5ECB47",
"V 	c #41C342",
"W 	c #3AA43E",
"X 	c #37B43F",
"Y 	c #6DE04C",
"Z 	c #53C044",
"` 	c #35B03F",
" .	c #39A83E",
"..	c #3AC041",
"+.	c #36A83E",
"@.	c #60D649",
"#.	c #66DA4A",
"$.	c #29A03C",
"%.	c #279F3C",
"&.	c #2FAC3E",
"*.	c #27A03C",
"=.	c #2CA23C",
"-.	c #269F3C",
";.	c #37BF41",
">.	c #58C846",
",.	c #39BC41",
"'.	c #43C343",
").	c #3DBF41",
"!.	c #5BD247",
"~.	c #69DB4B",
"{.	c #3CBB41",
"].	c #54C144",
"^.	c #70E44D",
"/.	c #3FB540",
"(.	c #56CE46",
"_.	c #5BD147",
":.	c #3FBA41",
"<.	c #4DC944",
"[.	c #289F3C",
"}.	c #2A9B3B",
"|.	c #23953A",
"1.	c #3CC142",
"2.	c #6BDD4B",
"3.	c #6ADD4B",
"4.	c #6BDE4B",
"5.	c #5CD047",
"6.	c #51CA45",
"7.	c #64D649",
"8.	c #2DAC3E",
"9.	c #3BAC3F",
"0.	c #3CA63E",
"a.	c #3AA23E",
"b.	c #34B740",
"c.	c #37B940",
"d.	c #34B43F",
"e.	c #3FA83F",
"f.	c #4CC844",
"g.	c #40C242",
"h.	c #56C946",
"i.	c #40C142",
"j.	c #49C644",
"k.	c #43C242",
"l.	c #38BF41",
"m.	c #48C643",
"n.	c #42C242",
"o.	c #39B640",
"p.	c #39BB41",
"q.	c #38BB40",
"r.	c #41C242",
"s.	c #6DDF4C",
"t.	c #61D749",
"u.	c #31A23D",
"v.	c #3EC042",
"w.	c #43BF42",
"x.	c #60D048",
"y.	c #42BD42",
"z.	c #5CD348",
"A.	c #52C344",
"B.	c #38C041",
"C.	c #53C444",
"D.	c #68DC4B",
"E.	c #5CC946",
"F.	c #5FCE47",
"G.	c #2C9B3C",
"H.	c #2A973B",
"I.	c #2B993B",
"J.	c #29953B",
"K.	c #3DC042",
"L.	c #37BC41",
"M.	c #68DD4B",
"N.	c #56CF46",
"O.	c #40C042",
"P.	c #249A3B",
"Q.	c #58CD46",
"R.	c #28A03C",
"S.	c #32AF3E",
"T.	c #63D349",
"U.	c #65D649",
"V.	c #5CD147",
"W.	c #36B640",
"X.	c #3BA33E",
"Y.	c #27933A",
"Z.	c #37B33F",
"`.	c #4FCB45",
" +	c #3BC141",
".+	c #52CD46",
"++	c #319C3C",
"@+	c #67DB4A",
"#+	c #55C144",
"$+	c #44BE42",
"%+	c #58D047",
"&+	c #53BF44",
"*+	c #2DAB3E",
"=+	c #31BA40",
"-+	c #69DC4B",
";+	c #31AD3E",
">+	c #6BDF4B",
",+	c #33B13F",
"'+	c #26993B",
". . . . . . . . . + . . . . . . . . . . . . . . . . + . . . . . ",
"@ . . . . . . # $ % . + . . . . . . . . . . . . . & * = . . . . ",
"- ; + . > . @ , ' ) ! ~ . = { @ & . . . , @ ] . . ^ / ( . + _ = ",
": < [ # } | 1 2 3 4 5 6 7 8 9 0 a # . @ b c d . . . e . . $ f g ",
"h . i j k l m n o p q r . s t t u . . . v w x . . . . . . ^ y z ",
". . r A B C r . . . . . . D A E F . . . n 7 . . . . . . . . 7 n ",
"G | + n 7 x H # I J + K . ^ 7 L ~ # 1 | . . . . . . . . | 1 . . ",
"_ } M 7 N O P . $ K , Q > b > R S . + . . . 0 + 0 # . . . + . . ",
"T f U e V W n . . X Y Z Y ` G  .... . . . . +.@.#.J . . . . . . ",
"$.%.&.. . r . . . r *.=.-.r . r . . . . . . ;.>.>.& . . . . . . ",
". . . . . . . . . . . . . . . . . . . . . . . ,.,.. . . . . . . ",
". . . . . . . # & 1 . & . . . . . . . . . . . . . @ b + . . . . ",
". . . . . . . G '.} ).!.. . 7 . . . . . | . . . . & ~.$ . . . . ",
". . . . . . . {.O ].^./.| '.9 N M . . @ (._.:.. . n o 7 = <.. . ",
". . # . . . . n [.}.|.1.| 2.3.4.5.# . # 6.7.^ . . . . $ 9 8.. . ",
"@ = M . . . . . n n n . . 9.0.a.b.. . . c.d.. . . . . n e.n . . ",
"f.g.h.. . 7 i.. j.+ # k.. n r l.m.. n.. . . . . . . . . r . + G ",
"o.p.q.. . | ).. r.f.& s.= ! $ t.u.. v.. . . & . = . . . . $ a g ",
"n . . . . . . . . w.l x.l y.z.A.B.. . . . . C.H D.J . . . ( E.F.",
". . . . . . . . . n G.H.I.7 . e . . . . . . J #.#.J . . . . < J.",
". . . . . . . . . . r r r . . . . . . . . . 7 &.&.7 . . . . . r ",
". . . . . v.. . . . . . . . . . K.. N . . . . . . . . . . ).# . ",
"n.i.. . J l L.. . + . & . . . J M.# N.7 . . . . . . . & I - - (.",
"2.O.i.. r P.7 . . _ v.Q.# . . r R.. S.e . . . . . . . & T.Y T U.",
" .e i.. . n . . . K N V.. . . . n . . . . . . . . . . . W.X.Y.Z.",
"r . & `.+ . . . . d.e &.. . . . . . . . . & j.+ . . . . .  + +n ",
". & .+++r . . . & . . . . . . . . . . . $ @+t.$ . . & . . . . . ",
"# #+$+r & . . # %+L.. . = | = . . . . . ^ &+*+r . + - & . . . . ",
". . . . _.& . . . . . = t =+-++ . . . . . . . . . . . . . . . . ",
"M # . . + . . . . . . 7 ;+.+>++ . . . . . . . . . . . . . . i.G ",
"& . . . . . . . . . . . e ,+'+n . . . . . . . . . . . . . . . @ ",
". . . . . . . . . . . . . . n . . . . . . . . . . . . . . . . . "};
