/* XPM */
static char * fruit_xpm[] = {
"32 32 142 2",
"  	c None",
". 	c #3ABE41",
"+ 	c #38BD41",
"@ 	c #3F3B93",
"# 	c #39BD41",
"$ 	c #39BE41",
"% 	c #35BC40",
"& 	c #5DD348",
"* 	c #FF9E47",
"= 	c #FCC458",
"- 	c #5AD147",
"; 	c #43C342",
"> 	c #45C443",
", 	c #47C543",
"' 	c #55CE46",
") 	c #6FE24C",
"! 	c #51CB45",
"~ 	c #5DD448",
"{ 	c #36BC40",
"] 	c #190657",
"^ 	c #50CA45",
"/ 	c #60CF48",
"( 	c #38BA40",
"_ 	c #53CC45",
": 	c #6EE04C",
"< 	c #3BBE41",
"[ 	c #4EC945",
"} 	c #36B740",
"| 	c #66D74A",
"1 	c #41AC3F",
"2 	c #6CE04C",
"3 	c #2BA63D",
"4 	c #E43B00",
"5 	c #54CD46",
"6 	c #D76E35",
"7 	c #68DB4A",
"8 	c #60D548",
"9 	c #30AF3E",
"0 	c #40BA41",
"a 	c #6EE24C",
"b 	c #5CCB47",
"c 	c #6EE14C",
"d 	c #3FBB41",
"e 	c #3ABF41",
"f 	c #2FAD3E",
"g 	c #32AC3E",
"h 	c #2CA83D",
"i 	c #FFA55C",
"j 	c #BF1929",
"k 	c #4DBA42",
"l 	c #4ABB42",
"m 	c #3BC041",
"n 	c #26973B",
"o 	c #28983B",
"p 	c #27993B",
"q 	c #46C443",
"r 	c #3BBF41",
"s 	c #39BF41",
"t 	c #4BC844",
"u 	c #5ED448",
"v 	c #851B13",
"w 	c #57CF46",
"x 	c #3CBF41",
"y 	c #6CDE4B",
"z 	c #30B13E",
"A 	c #63D449",
"B 	c #5ECB47",
"C 	c #3ABD41",
"D 	c #41C342",
"E 	c #3AA43E",
"F 	c #C08B4C",
"G 	c #29A03C",
"H 	c #279F3C",
"I 	c #2FAC3E",
"J 	c #F57A37",
"K 	c #E4C19C",
"L 	c #4A9B75",
"M 	c #3C8F73",
"N 	c #57A576",
"O 	c #3A8E73",
"P 	c #388473",
"Q 	c #4DC944",
"R 	c #6CDF4C",
"S 	c #2DAC3E",
"T 	c #3FA83F",
"U 	c #4CC844",
"V 	c #40C242",
"W 	c #56C946",
"X 	c #39B640",
"Y 	c #39BB41",
"Z 	c #38BB40",
"` 	c #63D849",
" .	c #43BF42",
"..	c #68DC4B",
"+.	c #34BB40",
"@.	c #37BE41",
"#.	c #5CC946",
"$.	c #5FCE47",
"%.	c #3D9073",
"&.	c #2C9B3C",
"*.	c #2A973B",
"=.	c #2B993B",
"-.	c #66DA4A",
";.	c #29953B",
">.	c #3DBF41",
",.	c #42C242",
"'.	c #40C142",
").	c #5AA976",
"!.	c #3B8E73",
"~.	c #37BD41",
"{.	c #56CE46",
"].	c #6BDD4B",
"^.	c #40C042",
"/.	c #249A3B",
"(.	c #3EC042",
"_.	c #63D349",
":.	c #6DE04C",
"<.	c #65D649",
"[.	c #39A83E",
"}.	c #50CB45",
"|.	c #3E9173",
"1.	c #36B640",
"2.	c #3BA33E",
"3.	c #27933A",
"4.	c #37B33F",
"5.	c #4FCB45",
"6.	c #3A8973",
"7.	c #3D8F73",
"8.	c #3BC141",
"9.	c #52CD46",
"0.	c #319C3C",
"a.	c #55C144",
"b.	c #44BE42",
"c.	c #58D047",
"d.	c #37BC41",
"e.	c #5BD147",
"f.	c #58A576",
"g.	c #398D73",
"h.	c #31AD3E",
"i.	c #6BDF4B",
"j.	c #33B13F",
"k.	c #26993B",
". . . . . . . . . + . . . . . . . . . . . . . . @ @ @ . . . . . ",
"# . . . . . . $ % & . + . . . . . . . . . . . @ * = = @ . . . . ",
"- ; + . > . # , ' ) ! ~ . { @ @ @ @ . . , # ] * = = = = @ + ^ { ",
"/ ( _ $ : < [ } | 1 2 3 @ @ 4 4 4 4 ] ] 5 ] 6 = = = = = = @ 7 8 ",
"9 . 0 a b c d e f g h @ 4 4 4 4 4 i 4 j ] ] 6 6 = = = = = @ k l ",
". . m n o p m . . . @ 4 4 4 4 i 4 4 4 4 j ] * 6 6 * = = * 6 ] e ",
"q < + e r s t $ u @ 4 i i 4 4 4 4 4 4 4 4 v ] * = = * 6 6 6 ] . ",
"^ : w r x y z . @ 4 4 i i 4 4 4 4 4 4 4 4 j v ] ] * = = = ] . . ",
"A 7 B C D E e . @ 4 4 4 4 4 4 4 4 4 4 i 4 4 v ] F ] ] ] ] . . . ",
"G H I . . @ @ @ 4 i 4 4 4 4 4 4 4 i 4 4 4 4 J v ] F ] . . . . . ",
". . . . @ * = @ 4 4 4 4 4 4 4 4 4 4 4 4 4 4 v j ] K ] . . . . . ",
". . . ] * = @ j 4 4 i 4 4 4 i i 4 4 4 4 4 j v j v ] L M . . . . ",
". . ] 6 = = @ j 4 4 4 4 4 4 i i 4 4 4 i 4 v v J j ] N O . . . . ",
". . ] 6 6 = ] j j 4 4 4 4 4 4 4 4 4 4 j v v v j j ] P r { Q . . ",
". . ] * 6 6 ] v v j j 4 4 4 4 J j j v v v v j j v ] . % R S . . ",
"# { w ] * = = ] v v J v J J v v v v v v j J j v ] . . e T e . . ",
"U V W . ] ] * = ] v v v J J v v v j J j j j v ] . . . . m . + q ",
"X Y Z . ] F ] ] ] ] ] v v j j j j j j j v ] ] . { . . . . % ` 8 ",
"e . . . ] F F ] .  .c ] ] ] ] ] ] ] ] ] @ @ @ t ..+.. . . @.#.$.",
". . %.] F K K ] . e &.*.=.] F F F F ] @ = = * @ -.+.. . . . ( ;.",
". %.%.] K K ] %.%.. m m m ] F F F F @ = = = = * ] r . . . . . m ",
". %.%.%.] ] %.%.%.. . . . ] F K F @ = = = = = = 6 ] . . . >.$ . ",
",.'.%.%.O ).!.%.. + . ~.] F K K K @ = = = = = 6 6 ] . ~.u - - {.",
"].^.'.. m /.r . . ^ (.] K K K K ] 6 * = = * 6 6 * ] . ~._.:.A <.",
"[.C '.. . e . . . }.|.] K K K K ] 6 6 6 * = = * ] . . . 1.2.3.4.",
"m . ~.5.+ . . . . 6.7.] K K K F ] ] = = = * ] ] . . . . . 8.8.e ",
". ~.9.0.m . . . ~.%.%.%.] ] ] ] %.%.] ] ] ] F ] . . ~.. . . . . ",
"$ a.b.m ~.. . $ c.d.%.%.!.%.!.%.%.%.%.%.] F F ] . + - ~.. . . . ",
". . . . e.~.. . . . . { f.g.N M %.%.%.. ] K K F ] %.. . . . . . ",
"w $ . . + . . . . . . r h.9.i.+ . . . %.%.] K K ] %.%.. . . '.q ",
"~.. . . . . . . . . . . C j.k.e . . . %.%.%.] ] %.%.%.. . . . # ",
". . . . . . . . . . . . . . e . . . . . %.%.%.%.%.%.. . . . . . "};
