/* XPM */
static char * h_d_xpm[] = {
"32 32 118 2",
"  	c None",
". 	c #3ABE41",
"+ 	c #534721",
"@ 	c #38BD41",
"# 	c #39BD41",
"$ 	c #705654",
"% 	c #8F7772",
"& 	c #39BE41",
"* 	c #35BC40",
"= 	c #5DD348",
"- 	c #5AD147",
"; 	c #B7A099",
"> 	c #55CE46",
", 	c #6FE24C",
"' 	c #51CB45",
") 	c #5DD448",
"! 	c #36BC40",
"~ 	c #4FCA45",
"{ 	c #37BD41",
"] 	c #47C543",
"^ 	c #44C443",
"/ 	c #50CA45",
"( 	c #60CF48",
"_ 	c #36B740",
": 	c #66D74A",
"< 	c #41AC3F",
"[ 	c #6CE04C",
"} 	c #2BA63D",
"| 	c #54CD46",
"1 	c #68DA4A",
"2 	c #32B13F",
"3 	c #68DB4A",
"4 	c #60D548",
"5 	c #30AF3E",
"6 	c #2FAD3E",
"7 	c #32AC3E",
"8 	c #8F4622",
"9 	c #4EB943",
"0 	c #39BF41",
"a 	c #38BE41",
"b 	c #4DBA42",
"c 	c #4ABB42",
"d 	c #3BC041",
"e 	c #AC5628",
"f 	c #D46833",
"g 	c #3BBF41",
"h 	c #3ABF41",
"i 	c #46C443",
"j 	c #3BBE41",
"k 	c #4EC945",
"l 	c #6EE04C",
"m 	c #57CF46",
"n 	c #63D449",
"o 	c #29A03C",
"p 	c #279F3C",
"q 	c #EEBE93",
"r 	c #D7906E",
"s 	c #69DB4B",
"t 	c #C3D5EF",
"u 	c #2E1E22",
"v 	c #CACACC",
"w 	c #4DC944",
"x 	c #E6F7FF",
"y 	c #928A8C",
"z 	c #6CDF4C",
"A 	c #2DAC3E",
"B 	c #FFFFFF",
"C 	c #483A3E",
"D 	c #7A0000",
"E 	c #3FA83F",
"F 	c #4CC844",
"G 	c #40C242",
"H 	c #56C946",
"I 	c #40C142",
"J 	c #AB0000",
"K 	c #E30000",
"L 	c #39B640",
"M 	c #39BB41",
"N 	c #38BB40",
"O 	c #3DBF41",
"P 	c #FFE1AF",
"Q 	c #63D849",
"R 	c #68DC4B",
"S 	c #34BB40",
"T 	c #37BE41",
"U 	c #5CC946",
"V 	c #5FCE47",
"W 	c #38BA40",
"X 	c #29953B",
"Y 	c #E3B700",
"Z 	c #FFE500",
"` 	c #42C242",
" .	c #AD8100",
"..	c #5ED448",
"+.	c #56CE46",
"@.	c #6BDD4B",
"#.	c #40C042",
"$.	c #C79D00",
"%.	c #63D349",
"&.	c #6DE04C",
"*.	c #65D649",
"=.	c #39A83E",
"-.	c #3ABD41",
";.	c #36B640",
">.	c #3BA33E",
",.	c #27933A",
"'.	c #37B33F",
").	c #4FCB45",
"!.	c #49C644",
"~.	c #3BC141",
"{.	c #52CD46",
"].	c #319C3C",
"^.	c #61D749",
"/.	c #55C144",
"(.	c #44BE42",
"_.	c #58D047",
":.	c #2DAB3E",
"<.	c #5BD147",
". . + . + . . . . @ . . . . . . . . . . . . . . . . + . + . . . ",
"# + $ + % + + & * = . @ . . . . . . . . . . . . + + % + $ + . . ",
"- + % + ; + % + > , ' ) . ! ~ # { . . . ] # ^ + % + ; + % + / ! ",
"( + $ % ; $ + _ : < [ } + + + + + + + # | 1 2 . + $ ; % $ + 3 4 ",
"5 . + $ % ; + + 6 7 + + 8 8 8 8 8 8 8 + + 9 0 + + ; % $ + a b c ",
". . d + $ % ; $ + + 8 8 e f f f f f e 8 8 + + $ ; % $ + . . g h ",
"i j @ h + + $ % $ 8 e e f f e f e f f e e 8 $ % $ + + . j k . . ",
"/ l m + + + + + 8 e e f f e f f f e f f e e 8 + + + + + . @ . . ",
"n 3 + 8 f f e 8 8 e e f f 8 f e f 8 f f e e 8 8 e f f 8 + . . . ",
"o p + q q r r + 8 e e f f 8 e 8 e 8 f f e e 8 + r r q q + . . . ",
". . . + q q r + 8 8 e e f f 8 f 8 f f e e 8 8 + r q q + . . . . ",
". . . . + + + + 8 8 8 e e f f f f f e e 8 8 8 + + + + @ . . . . ",
". . . . . . + 8 8 + + + + 8 8 8 8 8 + + + + 8 8 + { s * . . . . ",
". . . . . . + 8 8 8 t u v 8 e e e 8 v u t 8 8 8 + h 6 g ! w . . ",
". . & . . . . + 8 e x u y e f f f e y u x e 8 + . . . * z A . . ",
"# ! m . . . . + 8 e B C C q D D D q C C B e 8 + . . . h E h . . ",
"F G H . . g I . + 8 e e q D J K J D q e e 8 + . . . . . d . @ i ",
"L M N . . j O . + + 8 q P D J J J D P q 8 + + . ! . . . . * Q 4 ",
"h . . . . . . + 8 D + r P P D D D P P r + D 8 + R S . . . T U V ",
". . . . . . + 8 8 8 D + r r r r r r r + D 8 8 8 + S . . . . W X ",
". . . . . + 8 e e 8 r D J J Y Z Y J J D r 8 e e 8 + . . . . . d ",
". . . . . + e f 8 + r q q Y Z Z Z Y q q r + 8 f e + . . . O & . ",
"` I . . + 8 f e + + q P P Y  . . .Y P P q + + e f 8 + { ..- - +.",
"@.#.I . + % ; $ + + q P P  .$.Z $. .P P q + + $ ; % + { %.&.n *.",
"=.-.I . + % % $ + + q P P P  . . .P P P q + + $ % % + . ;.>.,.'.",
"d . { ).@ + + + . + e q P P P P P P P q e + !.+ + + . . . ~.~.h ",
". { {.].d . . . { + e e q q q q q q q e e + ^.* . . { . . . . . ",
"& /.(.d { . . & _.+ e f e + + + + + e f e + :.d . @ - { . . . . ",
". . . . <.{ . . . + 8 f e 8 + @ + 8 e f 8 + . . . . . . . . . . ",
"m & . . @ . . . . . + % ; $ + @ + $ ; % + . . . . . . . . . I i ",
"{ . . . . . . . . . + % % $ + h + $ % % + . . . . . . . . . . # ",
". . . . . . . . . . . + + + h . . + + + . . . . . . . . . . . . "};
