/* XPM */
static char * h_l_xpm[] = {
"32 32 140 2",
"  	c None",
". 	c #3ABE41",
"+ 	c #38BD41",
"@ 	c #534721",
"# 	c #39BD41",
"$ 	c #39BE41",
"% 	c #35BC40",
"& 	c #5DD348",
"* 	c #705654",
"= 	c #8F7772",
"- 	c #65D94A",
"; 	c #36BC40",
"> 	c #5AD147",
", 	c #43C342",
"' 	c #45C443",
") 	c #47C543",
"! 	c #55CE46",
"~ 	c #6FE24C",
"{ 	c #51CB45",
"] 	c #5DD448",
"^ 	c #B7A099",
"/ 	c #57C445",
"( 	c #37BE41",
"_ 	c #50CA45",
": 	c #60CF48",
"< 	c #38BA40",
"[ 	c #53CC45",
"} 	c #6EE04C",
"| 	c #3BBE41",
"1 	c #4EC945",
"2 	c #36B740",
"3 	c #66D74A",
"4 	c #41AC3F",
"5 	c #6CE04C",
"6 	c #2BA63D",
"7 	c #3ABD41",
"8 	c #68DB4A",
"9 	c #60D548",
"0 	c #30AF3E",
"a 	c #40BA41",
"b 	c #6EE24C",
"c 	c #5CCB47",
"d 	c #6EE14C",
"e 	c #3FBB41",
"f 	c #3ABF41",
"g 	c #2FAD3E",
"h 	c #32AC3E",
"i 	c #8F4622",
"j 	c #38BE41",
"k 	c #4DBA42",
"l 	c #4ABB42",
"m 	c #3BC041",
"n 	c #26973B",
"o 	c #28983B",
"p 	c #27993B",
"q 	c #AC5628",
"r 	c #D46833",
"s 	c #3BBF41",
"t 	c #46C443",
"u 	c #39BF41",
"v 	c #4BC844",
"w 	c #57CF46",
"x 	c #3CBF41",
"y 	c #6CDE4B",
"z 	c #44C343",
"A 	c #63D449",
"B 	c #5ECB47",
"C 	c #41C342",
"D 	c #3AA43E",
"E 	c #66DA4A",
"F 	c #34BB40",
"G 	c #29A03C",
"H 	c #279F3C",
"I 	c #2FAC3E",
"J 	c #D7906E",
"K 	c #EEBE93",
"L 	c #58C846",
"M 	c #37BD41",
"N 	c #39BC41",
"O 	c #54CD46",
"P 	c #69DB4B",
"Q 	c #D9D9DD",
"R 	c #2E1E22",
"S 	c #C3D5EF",
"T 	c #4DC944",
"U 	c #928A8C",
"V 	c #E6F7FF",
"W 	c #6CDF4C",
"X 	c #2DAC3E",
"Y 	c #7A0000",
"Z 	c #483A3E",
"` 	c #FFFFFF",
" .	c #3FA83F",
"..	c #4CC844",
"+.	c #40C242",
"@.	c #56C946",
"#.	c #AB0000",
"$.	c #E30000",
"%.	c #FFE1AF",
"&.	c #39B640",
"*.	c #39BB41",
"=.	c #38BB40",
"-.	c #63D849",
";.	c #53C444",
">.	c #68DC4B",
",.	c #5CC946",
"'.	c #5FCE47",
").	c #29953B",
"!.	c #AD8100",
"~.	c #3EC042",
"{.	c #FFE500",
"].	c #E3B700",
"^.	c #3DBF41",
"/.	c #42C242",
"(.	c #40C142",
"_.	c #37BC41",
":.	c #5ED448",
"<.	c #56CE46",
"[.	c #6BDD4B",
"}.	c #40C042",
"|.	c #249A3B",
"1.	c #C79D00",
"2.	c #63D349",
"3.	c #6DE04C",
"4.	c #65D649",
"5.	c #39A83E",
"6.	c #36B640",
"7.	c #3BA33E",
"8.	c #27933A",
"9.	c #37B33F",
"0.	c #4FCB45",
"a.	c #34B43F",
"b.	c #3BC141",
"c.	c #52CD46",
"d.	c #319C3C",
"e.	c #55C144",
"f.	c #44BE42",
"g.	c #58D047",
"h.	c #5BD147",
"i.	c #31AD3E",
". . . . . . . . . + . . . . . @ . @ . . . . @ . @ . + . . . . . ",
"# . . . . . . $ % & . + . @ @ * @ * @ . @ @ = @ * @ - ; . . . . ",
"> , + . ' . # ) ! ~ { ] @ * @ * @ * @ @ = @ ^ @ = @ / ( . + _ ; ",
": < [ $ } | 1 2 3 4 5 6 @ @ @ @ @ @ @ @ ^ * ^ = * @ 7 . . % 8 9 ",
"0 . a b c d e f g h @ @ i i i i i i i @ ^ ^ = * @ . . . . j k l ",
". . m n o p m . @ @ i q r r r q q @ @ * ^ = * @ . . . . . . s f ",
"t | + f s u v @ i r q r r r r r q * = = * @ @ . . . . . | 1 . . ",
"_ } w s x y @ i r r r i r r r q i @ @ @ @ @ @ @ z $ . . . + . . ",
"A 8 B 7 C D @ r q r q i r r r r q r r r q i @ @ E F . . . . . . ",
"G H I . . m @ q i q i r r r r r q i J K K i @ @ L M . . . . . . ",
". . . . . . @ i q i q r r r r r q @ J K i @ i @ N . . . . . . . ",
". . . . . . . @ i q r r r r r q q i @ @ @ i i @ . # O + . . . . ",
". . . . . . . @ i i i @ @ @ @ q q q i i i i i @ . M P % . . . . ",
". . . . . . . @ i q q Q R S i q q q q i i i i @ . f g s ; T . . ",
". . $ . . . . @ q r r U R V q r r q q q i i i @ . . . % W X . . ",
"# ; w . . . . Y Y K K Z Z ` r r r r q q i i @ . . . . f  .f . . ",
"..+.@.. . s Y #.$.#.%.K q r r r r r q i i i @ . . . . . m . + t ",
"&.*.=.. . | Y #.#.#.%.%.K q r r r q i i i @ M . ; . . . . % -.9 ",
"f . . . . . . Y Y J %.%.K q q q i i i @ @ . ;.v >.F . . . ( ,.'.",
". . . . . . . . . @ J J J i i i i @ @ Y . . F E E F . . . . < ).",
". . . . . . . . . !.Y Y #.#.#.#.#.Y Y @ . . s I I s . . . . . m ",
". . . . . ~.. . !.{.].J K %.%.K q q q i @ . . . . . . . . ^.$ . ",
"/.(.. . F d _.!.].{.].K %.%.%.%.q r q q @ . . . . . . M :.> > <.",
"[.}.(.. m |.s !.1.].].K %.%.%.%.@ r r q @ . . . . . . M 2.3.A 4.",
"5.7 (.. . f . . {.1.!.K %.%.%.%.@ q r q @ . . . . . . . 6.7.8.9.",
"m . M 0.+ . . . . a.@ J K %.%.q @ = ^ * @ @ @ + . . . . . b.b.f ",
". M c.d.m . . . M . . @ J K q r @ = = * @ i i @ . . M . . . . . ",
"$ e.f.m M . . $ g._.. . @ i r r q @ @ @ i i @ m . + > M . . . . ",
". . . . h.M . . . . . ; @ i r r q i @ @ @ @ . . . . . . . . . . ",
"w $ . . + . . . . . . s i.@ = ^ * @ . . . . . . . . . . . . (.t ",
"M . . . . . . . . . . . 7 @ = = * @ . . . . . . . . . . . . . # ",
". . . . . . . . . . . . . . @ @ @ . . . . . . . . . . . . . . . "};
