/* XPM */
static char * h_r_xpm[] = {
"32 32 134 2",
"  	c None",
". 	c #3ABE41",
"+ 	c #38BD41",
"@ 	c #39BD41",
"# 	c #534721",
"$ 	c #39BE41",
"% 	c #5DD348",
"& 	c #37BD41",
"* 	c #65D94A",
"= 	c #36BC40",
"- 	c #5AD147",
"; 	c #43C342",
"> 	c #45C443",
", 	c #705654",
"' 	c #8F7772",
") 	c #5DD448",
"! 	c #47C543",
"~ 	c #44C443",
"{ 	c #38BE41",
"] 	c #57C445",
"^ 	c #37BE41",
"/ 	c #50CA45",
"( 	c #60CF48",
"_ 	c #38BA40",
": 	c #53CC45",
"< 	c #6EE04C",
"[ 	c #B7A099",
"} 	c #54CD46",
"| 	c #68DA4A",
"1 	c #32B13F",
"2 	c #3ABD41",
"3 	c #35BC40",
"4 	c #68DB4A",
"5 	c #60D548",
"6 	c #30AF3E",
"7 	c #40BA41",
"8 	c #6EE24C",
"9 	c #5CCB47",
"0 	c #44BC42",
"a 	c #4EB943",
"b 	c #39BF41",
"c 	c #4DBA42",
"d 	c #4ABB42",
"e 	c #3BC041",
"f 	c #26973B",
"g 	c #28983B",
"h 	c #27993B",
"i 	c #8F4622",
"j 	c #3BBF41",
"k 	c #3ABF41",
"l 	c #46C443",
"m 	c #3BBE41",
"n 	c #4BC844",
"o 	c #AC5628",
"p 	c #D46833",
"q 	c #4EC945",
"r 	c #57CF46",
"s 	c #3CBF41",
"t 	c #6CDE4B",
"u 	c #30B13E",
"v 	c #44C343",
"w 	c #63D449",
"x 	c #5ECB47",
"y 	c #41C342",
"z 	c #3AA43E",
"A 	c #34BB40",
"B 	c #29A03C",
"C 	c #279F3C",
"D 	c #2FAC3E",
"E 	c #EEBE93",
"F 	c #D7906E",
"G 	c #69DB4B",
"H 	c #2FAD3E",
"I 	c #4DC944",
"J 	c #C3D5EF",
"K 	c #2E1E22",
"L 	c #D9D9DD",
"M 	c #6CDF4C",
"N 	c #2DAC3E",
"O 	c #E6F7FF",
"P 	c #928A8C",
"Q 	c #3FA83F",
"R 	c #4CC844",
"S 	c #40C242",
"T 	c #56C946",
"U 	c #40C142",
"V 	c #FFFFFF",
"W 	c #483A3E",
"X 	c #7A0000",
"Y 	c #39B640",
"Z 	c #39BB41",
"` 	c #38BB40",
" .	c #3DBF41",
"..	c #FFE1AF",
"+.	c #AB0000",
"@.	c #E30000",
"#.	c #63D849",
"$.	c #5CC946",
"%.	c #5FCE47",
"&.	c #66DA4A",
"*.	c #29953B",
"=.	c #3EC042",
"-.	c #AD8100",
";.	c #42C242",
">.	c #6EE14C",
",.	c #37BC41",
"'.	c #E3B700",
").	c #FFE500",
"!.	c #5ED448",
"~.	c #56CE46",
"{.	c #6BDD4B",
"].	c #40C042",
"^.	c #249A3B",
"/.	c #63D349",
"(.	c #6DE04C",
"_.	c #65D649",
":.	c #39A83E",
"<.	c #50CB45",
"[.	c #C79D00",
"}.	c #36B640",
"|.	c #3BA33E",
"1.	c #27933A",
"2.	c #37B33F",
"3.	c #4FCB45",
"4.	c #3BC141",
"5.	c #52CD46",
"6.	c #319C3C",
"7.	c #67DB4A",
"8.	c #61D749",
"9.	c #55C144",
"0.	c #44BE42",
"a.	c #53BF44",
"b.	c #2DAB3E",
"c.	c #5BD147",
". . . . . . . . . + . . . . . . . . . . . . . . . . + . . . . . ",
"@ . . . . . # $ # % . + . # . # . . . . . . . . . & * = . . . . ",
"- ; + . > # , # ' # # ) # , # , # # . . ! @ ~ . . { ] ^ . + / = ",
"( _ : $ < # ' # [ # ' # # , # , # , # @ } | 1 . . . 2 . . 3 4 5 ",
"6 . 7 8 9 # , ' [ , [ # # # # # # # # . 0 a b . . . . . . { c d ",
". . e f g h # , ' [ [ # i i i i i i i # # j . . . . . . . . j k ",
"l m + k j b n # , ' [ , # # o o p p p o i # # . . . . . m q . . ",
"/ < r j s t u . # # , ' ' , o p p p p p o p i # v $ . . . + . . ",
"w 4 x 2 y z k # # # # # # # i o p p p i p p p i # A . . . . . . ",
"B C D . . e . # # i o p p p o p p p p i o p o p # & . . . . . . ",
". . . . . . . # # i E E F i o p p p p p i o i o # . . . . . . . ",
". . . . . . . # i # i E F # o p p p p p o i o i # @ } + . . . . ",
". . . . . . . # i i # # # i o o p p p p p o i # . & G 3 . . . . ",
". . . . . . . # i i i i i o o o # # # # i i i # . k H j = I . . ",
". . $ . . . . # i i i i o o o o i J K L o o i # . . . 3 M N . . ",
"@ = r . . . . # i i i o o o p p o O K P p p o # . . . k Q k . . ",
"R S T . . j U . # i i o o p p p p V W W E E X X . . . . e . + l ",
"Y Z ` . . m  .. # i i i o p p p p p o E ..+.@.+.X . . . . 3 #.5 ",
"k . . . . . . . . # i i i o p p p o E ....+.+.+.X A . . . ^ $.%.",
". . . . . . . . . k # # i i i o o o E ....F X X &.A . . . . _ *.",
". . . . . . . . . . e X # # i i i i F F F # j D D j . . . . . e ",
". . . . . =.. . . . . # X X +.+.+.+.+.X X -.. . . . . . .  .$ . ",
";.U . . A >.,.. . + # i o o o E ....E F '.).-.. . . . & !.- - ~.",
"{.].U . e ^.j . . / # i o p p ........E ).).'.-.. . . & /.(.w _.",
":.2 U . . k . . . <.# i o p p # ......E '.[.[.-.. . . . }.|.1.2.",
"e . & 3.+ . . . . # # # i o p ' # ....E -.).[.+ . . . . . 4.4.k ",
". & 5.6.e . . . # i # i # , ' [ ' # E F # 7.8.3 . . & . . . . . ",
"$ 9.0.e & . . $ # i i # i # , ' ' # F # # a.b.e . + - & . . . . ",
". . . . c.& . . . # i i # p # # # i # i , # . . . . . . . . . . ",
"r $ . . + . . . . . # # # , [ ' i # # , , # . . . . . . . . U l ",
"& . . . . . . . . . . . # , ' , # . . # # . . . . . . . . . . @ ",
". . . . . . . . . . . . # # # # . . . . . . . . . . . . . . . . "};
