/* XPM */
static char * h_u_xpm[] = {
"32 32 103 2",
"  	c None",
". 	c #3ABE41",
"+ 	c #534721",
"@ 	c #38BD41",
"# 	c #39BD41",
"$ 	c #705654",
"% 	c #8F7772",
"& 	c #39BE41",
"* 	c #35BC40",
"= 	c #5DD348",
"- 	c #5AD147",
"; 	c #B7A099",
"> 	c #55CE46",
", 	c #6FE24C",
"' 	c #51CB45",
") 	c #5DD448",
"! 	c #36BC40",
"~ 	c #4FCA45",
"{ 	c #37BD41",
"] 	c #47C543",
"^ 	c #44C443",
"/ 	c #50CA45",
"( 	c #60CF48",
"_ 	c #36B740",
": 	c #66D74A",
"< 	c #41AC3F",
"[ 	c #6CE04C",
"} 	c #2BA63D",
"| 	c #54CD46",
"1 	c #68DA4A",
"2 	c #32B13F",
"3 	c #68DB4A",
"4 	c #60D548",
"5 	c #30AF3E",
"6 	c #2FAD3E",
"7 	c #32AC3E",
"8 	c #8F4622",
"9 	c #4EB943",
"0 	c #39BF41",
"a 	c #38BE41",
"b 	c #4DBA42",
"c 	c #4ABB42",
"d 	c #3BC041",
"e 	c #AC5628",
"f 	c #D46833",
"g 	c #3BBF41",
"h 	c #3ABF41",
"i 	c #46C443",
"j 	c #3BBE41",
"k 	c #4EC945",
"l 	c #6EE04C",
"m 	c #57CF46",
"n 	c #63D449",
"o 	c #29A03C",
"p 	c #279F3C",
"q 	c #69DB4B",
"r 	c #4DC944",
"s 	c #6CDF4C",
"t 	c #2DAC3E",
"u 	c #3FA83F",
"v 	c #4CC844",
"w 	c #40C242",
"x 	c #56C946",
"y 	c #40C142",
"z 	c #39B640",
"A 	c #39BB41",
"B 	c #38BB40",
"C 	c #3DBF41",
"D 	c #63D849",
"E 	c #7A0000",
"F 	c #68DC4B",
"G 	c #34BB40",
"H 	c #37BE41",
"I 	c #5CC946",
"J 	c #5FCE47",
"K 	c #AB0000",
"L 	c #38BA40",
"M 	c #29953B",
"N 	c #42C242",
"O 	c #5ED448",
"P 	c #56CE46",
"Q 	c #6BDD4B",
"R 	c #40C042",
"S 	c #63D349",
"T 	c #6DE04C",
"U 	c #65D649",
"V 	c #39A83E",
"W 	c #3ABD41",
"X 	c #36B640",
"Y 	c #3BA33E",
"Z 	c #27933A",
"` 	c #37B33F",
" .	c #4FCB45",
"..	c #49C644",
"+.	c #3BC141",
"@.	c #52CD46",
"#.	c #319C3C",
"$.	c #61D749",
"%.	c #55C144",
"&.	c #44BE42",
"*.	c #58D047",
"=.	c #2DAB3E",
"-.	c #5BD147",
". . + . + . . . . @ . . . . . . . . . . . . . . . . + . + . . . ",
"# + $ + % + + & * = . @ . . . . . . . . . . . . + + % + $ + . . ",
"- + ; + ; + % + > , ' ) . ! ~ # { . . . ] # ^ + % + ; + ; + / ! ",
"( + ; % ; $ + _ : < [ } + + + + + + + # | 1 2 . + $ ; % ; + 3 4 ",
"5 . + ; % ; + + 6 7 + + 8 8 8 8 8 8 8 + + 9 0 + + ; % ; + a b c ",
". . d + $ % ; $ + + 8 8 e f f f f f e 8 8 + + $ ; % $ + . . g h ",
"i j @ h + + $ + 8 8 e e f f f f f f f e e 8 8 + $ + + . j k . . ",
"/ l m + + + + + 8 e e f f f f f f f f f e e 8 + + + + + . @ . . ",
"n 3 + 8 f f e 8 8 e e f f f f f f f f f e e 8 8 e f f 8 + . . . ",
"o p + 8 e f f e 8 e e f f f f f f f f f e e 8 e f f e 8 + . . . ",
". . . + 8 e e 8 8 e e f f f f f f f f f e e 8 8 e e 8 + . . . . ",
". . . . + + + + 8 e e e f f f f f f f e e e 8 + + + + @ . . . . ",
". . . . . . + 8 8 8 e e e f e f e f e e e 8 8 8 + { q * . . . . ",
". . . . . . + 8 8 8 e e e e e e e e e e e 8 8 8 + h 6 g ! r . . ",
". . & . . . . + 8 8 8 e e e e e e e e e 8 8 8 + . . . * s t . . ",
"# ! m . . . . + 8 8 8 8 e 8 e e e 8 e 8 8 8 8 + . . . h u h . . ",
"v w x . . g y . + 8 8 8 8 8 e 8 e 8 8 8 8 8 + . . . . . d . @ i ",
"z A B . . j C . + + 8 8 8 8 8 8 8 8 8 8 8 + + . ! . . . . * D 4 ",
"h . . . . . . + 8 E + 8 8 8 8 8 8 8 8 8 + E 8 + F G . . . H I J ",
". . . . . . + 8 e e E E K K K K K K K E E e e 8 + G . . . . L M ",
". . . . . + 8 f e 8 8 8 e e e e e e e 8 8 8 e f 8 + . . . . . d ",
". . . . . + f e 8 + 8 e e f f f f f e e 8 + 8 e f + . . . C & . ",
"N y . . + 8 f e + + 8 e f f f f f f f e 8 + + e f 8 + { O - - P ",
"Q R y . + % ; $ + + 8 e f f e f e f f e 8 + + $ ; % + { S T n U ",
"V W y . + % % $ + + 8 e f 8 f f f 8 f e 8 + + $ % % + . X Y Z ` ",
"d . {  .@ + + + . + 8 e e 8 f f f 8 e e 8 + ..+ + + . . . +.+.h ",
". { @.#.d . . . { + e e 8 8 e f e 8 8 e e + $.* . . { . . . . . ",
"& %.&.d { . . & *.+ e e e + 8 e 8 + e e e + =.d . @ - { . . . . ",
". . . . -.{ . . . + 8 e f 8 + 8 + 8 f e 8 + . . . . . . . . . . ",
"m & . . @ . . . . . + % % $ + + + $ % % + . . . . . . . . . y i ",
"{ . . . . . . . . . + % % $ + h + $ % % + . . . . . . . . . . # ",
". . . . . . . . . . . + + + h . . + + + . . . . . . . . . . . . "};
