/* XPM */
static char * img_xpm[] = {
"32 32 281 2",
"  	c None",
". 	c #000001",
"+ 	c #000000",
"@ 	c #010001",
"# 	c #000401",
"$ 	c #010000",
"% 	c #012400",
"& 	c #008300",
"* 	c #007F00",
"= 	c #007B00",
"- 	c #00C101",
"; 	c #00BE01",
"> 	c #00C200",
", 	c #018500",
"' 	c #017900",
") 	c #013600",
"! 	c #008800",
"~ 	c #008400",
"{ 	c #008000",
"] 	c #018900",
"^ 	c #017E00",
"/ 	c #070403",
"( 	c #060001",
"_ 	c #018302",
": 	c #008701",
"< 	c #007700",
"[ 	c #007A00",
"} 	c #007D01",
"| 	c #017F01",
"1 	c #070003",
"2 	c #070303",
"3 	c #D8A076",
"4 	c #AF815E",
"5 	c #007F01",
"6 	c #428F0B",
"7 	c #DAE338",
"8 	c #D3DE35",
"9 	c #D3DF35",
"0 	c #D3D336",
"a 	c #D3D334",
"b 	c #D9D833",
"c 	c #426309",
"d 	c #004B00",
"e 	c #AF8060",
"f 	c #D89F79",
"g 	c #000101",
"h 	c #000002",
"i 	c #FFC290",
"j 	c #D49D73",
"k 	c #007500",
"l 	c #3C8D08",
"m 	c #FFFF47",
"n 	c #FFFF44",
"o 	c #FFFF45",
"p 	c #FFFF43",
"q 	c #FFFF42",
"r 	c #3B3A06",
"s 	c #D49C76",
"t 	c #FFC193",
"u 	c #FFC392",
"v 	c #D39D75",
"w 	c #FAFA41",
"x 	c #FAF941",
"y 	c #FAFA42",
"z 	c #FAFB42",
"A 	c #D39B74",
"B 	c #FFC190",
"C 	c #FFC291",
"D 	c #D39C74",
"E 	c #F5DA33",
"F 	c #F8DB33",
"G 	c #8A5100",
"H 	c #956402",
"I 	c #956401",
"J 	c #946402",
"K 	c #956403",
"L 	c #F8DC33",
"M 	c #D39C73",
"N 	c #010100",
"O 	c #FFC594",
"P 	c #D69E76",
"Q 	c #FC9100",
"R 	c #FF9900",
"S 	c #FCAE0A",
"T 	c #FCAC05",
"U 	c #FCAC03",
"V 	c #FAAC08",
"W 	c #FBAC08",
"X 	c #FDAE0A",
"Y 	c #FF9A00",
"Z 	c #FC9300",
"` 	c #D79F75",
" .	c #FFC693",
"..	c #000100",
"+.	c #AB7042",
"@.	c #A2693B",
"#.	c #996232",
"$.	c #5A3408",
"%.	c #512E00",
"&.	c #4C3201",
"*.	c #4D3100",
"=.	c #4C3101",
"-.	c #4D3203",
";.	c #9A6132",
">.	c #A2693A",
",.	c #AB7040",
"'.	c #996031",
").	c #9C6436",
"!.	c #AC7342",
"~.	c #5C412C",
"{.	c #4E3827",
"].	c #422F21",
"^.	c #523B2A",
"/.	c #513A29",
"(.	c #5D412C",
"_.	c #AD7242",
":.	c #9C6435",
"<.	c #99602F",
"[.	c #040102",
"}.	c #A27858",
"|.	c #FFC994",
"1.	c #FFC694",
"2.	c #FFBF8E",
"3.	c #DAA279",
"4.	c #FFC593",
"5.	c #FFC492",
"6.	c #D8A178",
"7.	c #FDBB8C",
"8.	c #FFC992",
"9.	c #A07856",
"0.	c #040100",
"a.	c #614632",
"b.	c #A27756",
"c.	c #9E7455",
"d.	c #977052",
"e.	c #FFBE8C",
"f.	c #FFBE8D",
"g.	c #D39D73",
"h.	c #F5B587",
"i.	c #FBB98A",
"j.	c #C48A59",
"k.	c #7A5536",
"l.	c #09090B",
"m.	c #D39C72",
"n.	c #FFBE8B",
"o.	c #FFBF8C",
"p.	c #D19B72",
"q.	c #F8B78A",
"r.	c #FCB98B",
"s.	c #985B1F",
"t.	c #5D3919",
"u.	c #020101",
"v.	c #545454",
"w.	c #FFFFFF",
"x.	c #A2A2A1",
"y.	c #F9FAFA",
"z.	c #FFBE8E",
"A.	c #A36B3B",
"B.	c #8F5927",
"C.	c #825126",
"D.	c #A36733",
"E.	c #010101",
"F.	c #525252",
"G.	c #E5E5FF",
"H.	c #D8D8FF",
"I.	c #9B9A97",
"J.	c #B4B4C7",
"K.	c #D5D5FF",
"L.	c #FBFCFF",
"M.	c #F5F5F5",
"N.	c #AF815D",
"O.	c #D49D72",
"P.	c #D89F76",
"Q.	c #8A5B34",
"R.	c #7B4E27",
"S.	c #805027",
"T.	c #9C612E",
"U.	c #9E7656",
"V.	c #826044",
"W.	c #030000",
"X.	c #525152",
"Y.	c #A0A1FF",
"Z.	c #0000FF",
"`.	c #DFDEFF",
" +	c #F6F5FF",
".+	c #F5F4F5",
"++	c #855329",
"@+	c #9B5E2A",
"#+	c #FFC691",
"$+	c #D6A074",
"%+	c #9F9EC2",
"&+	c #000094",
"*+	c #545395",
"=+	c #434394",
"-+	c #000085",
";+	c #F5F4F8",
">+	c #006700",
",+	c #007E00",
"'+	c #007E01",
")+	c #008001",
"!+	c #017F00",
"~+	c #017A00",
"{+	c #251306",
"]+	c #000093",
"^+	c #0F0F94",
"/+	c #F5F5F8",
"(+	c #007200",
"_+	c #008B00",
":+	c #008A01",
"<+	c #008B01",
"[+	c #008C01",
"}+	c #018B00",
"|+	c #018600",
"1+	c #000902",
"2+	c #001301",
"3+	c #FBB98B",
"4+	c #CB956F",
"5+	c #515252",
"6+	c #A6A7FF",
"7+	c #4242FF",
"8+	c #4646FF",
"9+	c #4546FF",
"0+	c #F5F6FF",
"a+	c #F4F5F5",
"b+	c #00A900",
"c+	c #00CD00",
"d+	c #00CD02",
"e+	c #00CD01",
"f+	c #00CE00",
"g+	c #01CD00",
"h+	c #01C800",
"i+	c #008700",
"j+	c #005401",
"k+	c #0B0204",
"l+	c #0B0505",
"m+	c #A6A6FE",
"n+	c #3F3EFE",
"o+	c #4245FF",
"p+	c #4244FF",
"q+	c #F6F6FF",
"r+	c #018300",
"s+	c #019F00",
"t+	c #00A001",
"u+	c #019401",
"v+	c #037803",
"w+	c #004D00",
"x+	c #002E00",
"y+	c #535454",
"z+	c #A3A3FF",
"A+	c #0D06FF",
"B+	c #1621FF",
"C+	c #181EFF",
"D+	c #FBFBFF",
"E+	c #FAFAFA",
"F+	c #016E01",
"G+	c #028700",
"H+	c #006E00",
"I+	c #D6D6D0",
"J+	c #FFFFFE",
"K+	c #3C3C38",
"L+	c #0B0D0B",
"M+	c #62381B",
"N+	c #A36934",
"O+	c #A06531",
"P+	c #9C6232",
"Q+	c #604135",
"R+	c #3C261C",
"S+	c #010002",
"T+	c #AFAFAD",
"U+	c #D4D4D2",
"V+	c #D3D3D4",
"W+	c #D3D3D3",
"X+	c #DADAD8",
"Y+	c #424242",
"Z+	c #4E2F14",
"`+	c #835328",
" @	c #805026",
".@	c #7D4E26",
"+@	c #4D3329",
"@@	c #2E1D15",
"#@	c #060607",
". . . . . . . . . . . . . . . . . . . . . . . . . . . . . . . . ",
". . . . . . . . . . . . . . . . . . . . . . . . . . . . . . . . ",
". . . . . . . . . . . . . + @ @ + + + + + # . . . . . . . . . . ",
". . . . . . . . . . . $ % & * = - ; > , ' + . . . . . . . . . . ",
". . . . . . . . . . . % ) ! ~ { - ; > ] ^ + . . . . . . . . . . ",
". . . . . . . / + + ( _ : < [ * + + + } | 1 + + 2 . . . . . . . ",
". . . . . . . + 3 4 + 5 6 7 8 9 0 a b c d + e f + g . . . . . . ",
". . . . . . h + i j + k l m n n o p q r + + s t + g . . . . . . ",
". . . . . . + + u v + w x + + + + + + y z + A B + + . . . . . . ",
". . . . . . + + C D + E F G H I J K G L E + M B + + . . . . . . ",
". . . . . . N + O P + Q R S T U V W X Y Z + `  .+ + . . . . . . ",
". . . . . . ..+ +.@.#.$.%.&.*.*.=.=.-.%.$.;.>.,.+ + . . . . . . ",
". . . . . . ..+ '.).!.~.{.+ ].^./.].+ {.(._.:.<.+ + . . . . . . ",
". . . . . . . [.+ }.|.1.2.+ 3.4.5.6.+ 7.C 8.9.+ 0.+ . . . . . . ",
". . . + + ..+ + + a.b.c.d.+ M e.f.g.+ h.i.j.k.+ . . . . . . . . ",
". . . + + + + + l.+ + + + + m.n.o.p.+ q.r.s.t.+ u.. . . . . . . ",
". . . + v.w.w.w.+ x.w.w.y.+ j e.z.2. .A.B.+ C.D.+ + E.. . . . . ",
". . . $ F.w.G.H.I.J.K.L.M.+ N.O.D M P.Q.R.+ S.T.U.V.+ . . . . . ",
". . . W.X.w.Y.Z.w.`.Z. +.++ + + + + + + + + ++@+#+$++ . . . . . ",
". . . h X.w.%+&+*+=+-+;+.++ >+,+'+'+)+!+~+h {++ B A + . . . . . ",
". . . h X.w.%+]+^+^+-+/+.++ (+_+:+<+[+}+|+1+2++ 3+4++ . . . . . ",
". . . h 5+w.6+7+8+9+Z.0+a++ b+c+d+e+f+g+h+i+j+k++ + l+. . . . . ",
". . . h 5+w.m+n+o+p+Z.q+M.+ r+s+t+u+v+~+< w+x+$ . . . . . . . . ",
". . . h y+w.z+A+B+C+Z.D+E++ F+G+! H++ + + + + $ . . . . . . . . ",
". . . . + + I+J+w.w.w.K++ L+. h + M+N+O+P+Q+R++ S+S+. . . . . . ",
". . . . . + T+U+V+W+X+Y+..+ . . + Z+`+ @.@+@@@+ S+. . . . . . . ",
". . . . . #@+ + + + + + ..+ + + + + + + + + + ... . . . . . . . ",
". . . . . + . h N N + W.W.h . + . . . . . . . . . . . . . . . . ",
". . . . . + . h N N + W.W.h . + . . . . . . . . . . . . . . . . ",
". . . . . . . . . . . . . . . . . . . . . . . . . . . . . . . . ",
". . . . . . . . . . . . . . . . . . . . . . . . . . . . . . . . ",
". . . . . . . . . . . . . . . . . . . . . . . . . . . . . . . . "};
