/* XPM */
static char * out_xpm[] = {
"32 32 200 2",
"  	c None",
". 	c #6265A0",
"+ 	c #676CA2",
"@ 	c #413F8E",
"# 	c #B1C0CE",
"$ 	c #C5D5DC",
"% 	c #595F7B",
"& 	c #444194",
"* 	c #53569A",
"= 	c #53559A",
"- 	c #494A96",
"; 	c #ADBCCA",
"> 	c #C1D1D9",
", 	c #5C627B",
"' 	c #575A9F",
") 	c #54589B",
"! 	c #4B4C96",
"~ 	c #55589D",
"{ 	c #413F90",
"] 	c #5F65A0",
"^ 	c #A5B8C9",
"/ 	c #A4B6C8",
"( 	c #92A2B6",
"_ 	c #90A1B5",
": 	c #7E8CB0",
"< 	c #3B3D6E",
"[ 	c #636B8D",
"} 	c #656DA3",
"| 	c #646CA2",
"1 	c #636BA2",
"2 	c #5C6296",
"3 	c #2D2A65",
"4 	c #A9BCCD",
"5 	c #A5B8CA",
"6 	c #515778",
"7 	c #5E649F",
"8 	c #A2B5C7",
"9 	c #A0B2C5",
"0 	c #9CADC0",
"a 	c #8B9AAF",
"b 	c #93A3B7",
"c 	c #6A75A5",
"d 	c #211761",
"e 	c #A5B8CC",
"f 	c #BBCBD5",
"g 	c #C4D4DA",
"h 	c #C3D4DA",
"i 	c #C5D6DB",
"j 	c #90A0B5",
"k 	c #231B62",
"l 	c #A3B5C8",
"m 	c #505679",
"n 	c #91A1B5",
"o 	c #0A006D",
"p 	c #00006D",
"q 	c #95A5B8",
"r 	c #302E66",
"s 	c #717DAC",
"t 	c #6974A6",
"u 	c #8797B7",
"v 	c #8695B6",
"w 	c #7986A7",
"x 	c #94A4B7",
"y 	c #38396B",
"z 	c #220E79",
"A 	c #95A6BC",
"B 	c #2D2085",
"C 	c #636D99",
"D 	c #38386D",
"E 	c #1B0A58",
"F 	c #1A0A58",
"G 	c #080053",
"H 	c #2F2D66",
"I 	c #707CA9",
"J 	c #98A9C0",
"K 	c #342C87",
"L 	c #2F2385",
"M 	c #333267",
"N 	c #5D63A3",
"O 	c #5A609F",
"P 	c #4E5191",
"Q 	c #94A5B7",
"R 	c #333367",
"S 	c #5C63A0",
"T 	c #99AAC0",
"U 	c #332C87",
"V 	c #717DAA",
"W 	c #6E79A6",
"X 	c #606998",
"Y 	c #707BA9",
"Z 	c #363769",
"` 	c #3C3595",
" .	c #3A3492",
"..	c #2E2385",
"+.	c #474698",
"@.	c #363668",
"#.	c #413D96",
"$.	c #3F3B93",
"%.	c #4A4B99",
"&.	c #37386B",
"*.	c #2A1C82",
"=.	c #30248F",
"-.	c #2E228F",
";.	c #2D218F",
">.	c #2A1A84",
",.	c #B8C7D2",
"'.	c #BCCBD4",
").	c #BECDD6",
"!.	c #8796AF",
"~.	c #6E79A9",
"{.	c #636DA2",
"].	c #95A6BF",
"^.	c #93A3BE",
"/.	c #92A3BD",
"(.	c #8694AE",
"_.	c #93A4B7",
":.	c #37376C",
"<.	c #313165",
"[.	c #302F64",
"}.	c #2D2B63",
"|.	c #21185C",
"1.	c #342C88",
"2.	c #43409B",
"3.	c #413E97",
"4.	c #362F8A",
"5.	c #4B4C9A",
"6.	c #13005C",
"7.	c #38386C",
"8.	c #221764",
"9.	c #221663",
"0.	c #383874",
"a.	c #99AAC1",
"b.	c #91A1B6",
"c.	c #312883",
"d.	c #3E3A92",
"e.	c #3D388F",
"f.	c #494996",
"g.	c #000049",
"h.	c #95A5B9",
"i.	c #38396D",
"j.	c #160154",
"k.	c #01004F",
"l.	c #38396E",
"m.	c #322A85",
"n.	c #322B85",
"o.	c #6B76A5",
"p.	c #37386D",
"q.	c #2D2A63",
"r.	c #2C2863",
"s.	c #2B2762",
"t.	c #1F135C",
"u.	c #4A4A98",
"v.	c #00004E",
"w.	c #100051",
"x.	c #626C99",
"y.	c #53569B",
"z.	c #261F63",
"A.	c #5A5FA1",
"B.	c #55599C",
"C.	c #7481AB",
"D.	c #737FAA",
"E.	c #67719C",
"F.	c #616A98",
"G.	c #2D2869",
"H.	c #333369",
"I.	c #050052",
"J.	c #130054",
"K.	c #66709B",
"L.	c #3B3493",
"M.	c #211562",
"N.	c #3F3C94",
"O.	c #3E3A91",
"P.	c #3B3690",
"Q.	c #342C85",
"R.	c #66709A",
"S.	c #241A67",
"T.	c #34346C",
"U.	c #150052",
"V.	c #0E0050",
"W.	c #190657",
"X.	c #000048",
"Y.	c #00004C",
"Z.	c #4F5585",
"`.	c #24107E",
" +	c #03005A",
".+	c #18045C",
"++	c #96A7BD",
"@+	c #9FB1C4",
"#+	c #98A8BC",
"$+	c #98A9BD",
"%+	c #97A8BC",
"&+	c #98A9BC",
"*+	c #A5B7C9",
"=+	c #A5B7CA",
"-+	c #51577A",
";+	c #42418E",
">+	c #4D5376",
",+	c #4D5377",
"'+	c #4E5477",
")+	c #2A255E",
"          . + @                                   . + @         ",
"          # $ %                                   # $ %         ",
"& * = = - ; > , ' ) ) ) ) ) ) ) ) ) ) ) ) ) ) ) ! ; > , ~ = * { ",
"] ^ / / ( _ : < [ } | | | | | | | | | | | | | 1 2 ( : 3 4 / 5 6 ",
"7 8 9 0 a b c d e f g h h h h h h h h h h h h i j b c k 9 9 l m ",
"7 8 n o p q c r s t u v v v v v v v v v v v v v w x c y z A l m ",
"7 8 n B C x c D E F F F F F F F F F F F F F F F G q c H I J l m ",
"7 8 n K L q c M N O O O O O O O O O O O O O O O P Q c R S T l m ",
"7 8 n U U q c r V W W W W W W W W W W W W W W W X x c r Y J l m ",
"7 8 n U U q c Z `  . . . . . . . . . . . . . . ...q c Z +.T l m ",
"7 8 n U U q c @.#.$.$.$.$.$.$.$.$.$.$.$.$.$.$.$.U q c @.%.T l m ",
"7 8 n U U q c &.*.=.-.-.-.-.-.-.-.-.-.-.-.-.-.;.>.q c @.%.T l m ",
"7 8 n U U q c k 9 ,.'.'.'.'.'.'.'.'.'.'.'.'.'.).!.b c @.%.T l m ",
"7 8 n U U q c r ~.{.].^.^.^.^.^.^.^.^.^.^.^.^./.(._.c @.%.T l m ",
"7 8 n U U q c :.<.[.}.}.}.}.}.}.}.}.}.}.}.}.}.}.|.q c @.%.T l m ",
"7 8 n 1.1.q c @.2.3.3.3.3.3.3.3.3.3.3.3.3.3.3.3.4.q c @.5.T l m ",
"7 8 ( 6.6.q c 7.8.9.9.9.9.9.9.9.9.9.9.9.9.9.9.9.6.q c 7.0.a.l m ",
"7 8 b.c.c.q c Z d.e.e.e.e.e.e.e.e.e.e.e.e.e.e.e.c.q c Z f.T l m ",
"7 8 ( g.g.h.c i.j.j.j.j.j.j.j.j.j.j.j.j.j.j.j.j.k.h.c l.<.a.l m ",
"7 8 b.m.n.n o.p.q.r.s.s.s.s.s.s.s.s.s.s.s.s.s.s.t.b.o.Z u.T l m ",
"7 8 ( v.w.x.y.z.A.B.C.D.D.D.D.D.D.D.D.D.D.D.D.D.E.F.y.G.H.a.l m ",
"7 8 ( I.J.K.L.M.N.O.P.P.P.P.P.P.P.P.P.P.P.P.P.P.Q.R.L.S.T.a.l m ",
"7 8 ( I.J.K.L.S.U.U.U.U.U.U.U.U.U.U.U.U.U.U.U.U.V.K.L.S.T.a.l m ",
"7 8 ( I.J.K.L.S.W.W.W.W.W.W.W.W.W.W.W.W.W.W.W.W.J.K.L.S.T.a.l m ",
"7 8 ( I.J.K.L.S.W.W.W.W.W.W.W.W.W.W.W.W.W.W.W.W.J.K.L.S.T.a.l m ",
"7 8 ( I.J.K.L.S.W.W.W.W.W.W.W.W.W.W.W.W.W.W.W.W.J.K.L.S.T.a.l m ",
"7 8 ( I.J.K.L.S.W.W.W.W.W.W.W.W.W.W.W.W.W.W.W.W.J.K.L.S.T.a.l m ",
"7 8 ( I.J.K.L.S.W.W.W.W.W.W.W.W.W.W.W.W.W.W.W.W.J.K.L.S.T.a.l m ",
"7 8 b.X.Y.Z.`. +v.v.v.v.v.v.v.v.v.v.v.v.v.v.v.v.Y.Z.`. +.+++l m ",
"7 8 @+#+$+%+&+&+$+$+$+$+$+$+$+$+$+$+$+$+$+$+$+$+$+%+&+&+%+@+l m ",
"] *+l l l l l l l l l l l l l l l l l l l l l l l l l l l l =+-+",
";+>+,+,+,+,+,+,+,+,+,+,+,+,+,+,+,+,+,+,+,+,+,+,+,+,+,+,+,+,+'+)+"};
