/* XPM */
static char * x_p_xpm[] = {
"32 32 240 2",
"  	c None",
". 	c #EABB6A",
"+ 	c #9F7441",
"@ 	c #BD894B",
"# 	c #E0B063",
"$ 	c #DFB063",
"% 	c #DFAF63",
"& 	c #EBBD6B",
"* 	c #EDBE6C",
"= 	c #EDBF6C",
"- 	c #E6B768",
"; 	c #DFAF62",
"> 	c #E9BA69",
", 	c #E3B465",
"' 	c #E0B163",
") 	c #D19E58",
"! 	c #865B32",
"~ 	c #E2B365",
"{ 	c #C28E4E",
"] 	c #E2B264",
"^ 	c #8A592F",
"/ 	c #8B6039",
"( 	c #A1774A",
"_ 	c #A1764A",
": 	c #B38B55",
"< 	c #B58D56",
"[ 	c #B58E56",
"} 	c #AC8350",
"| 	c #A2774A",
"1 	c #A17649",
"2 	c #AF8753",
"3 	c #B58E57",
"4 	c #A77E4E",
"5 	c #986D42",
"6 	c #7D532D",
"7 	c #EEC06E",
"8 	c #CC9A56",
"9 	c #E5B667",
"0 	c #956839",
"a 	c #643624",
"b 	c #663A27",
"c 	c #623725",
"d 	c #6C432D",
"e 	c #805B3D",
"f 	c #7F593C",
"g 	c #7F5A3C",
"h 	c #7F5A3D",
"i 	c #643926",
"j 	c #623625",
"k 	c #78512C",
"l 	c #E8BA6A",
"m 	c #C89552",
"n 	c #EDBF6D",
"o 	c #A97F47",
"p 	c #7C563A",
"q 	c #AA824D",
"r 	c #CDA25B",
"s 	c #CBA05A",
"t 	c #CCA15A",
"u 	c #CDA25C",
"v 	c #8A6136",
"w 	c #DCAC60",
"x 	c #BE884A",
"y 	c #8C5B30",
"z 	c #9D784C",
"A 	c #EBBD6C",
"B 	c #91683A",
"C 	c #EABC6B",
"D 	c #E9BB6B",
"E 	c #8F6639",
"F 	c #A87F47",
"G 	c #926D48",
"H 	c #B79057",
"I 	c #B68F57",
"J 	c #B89058",
"K 	c #855C34",
"L 	c #946738",
"M 	c #9E784C",
"N 	c #EEC06D",
"O 	c #EFC06D",
"P 	c #92693A",
"Q 	c #DCAC61",
"R 	c #BE894A",
"S 	c #8A582F",
"T 	c #ECBE6C",
"U 	c #906739",
"V 	c #CC9955",
"W 	c #A07541",
"X 	c #9C774B",
"Y 	c #926E48",
"Z 	c #865D35",
"` 	c #9E794C",
" .	c #E8B969",
"..	c #C79452",
"+.	c #E3B466",
"@.	c #8B5A30",
"#.	c #C38F4F",
"$.	c #CB9954",
"%.	c #8C5C31",
"&.	c #E0B164",
"*.	c #C18E4E",
"=.	c #8F6235",
"-.	c #7B522D",
";.	c #84562F",
">.	c #9F7743",
",.	c #9F7742",
"'.	c #9D7441",
").	c #9C7441",
"!.	c #9E7542",
"~.	c #9D7541",
"{.	c #9E7642",
"].	c #A07743",
"^.	c #936839",
"/.	c #6B3C21",
"(.	c #A07843",
"_.	c #8D6034",
":.	c #C99452",
"<.	c #986C3B",
"[.	c #BA864A",
"}.	c #D2A059",
"|.	c #D19F59",
"1.	c #EABB6B",
"2.	c #ECBE6D",
"3.	c #D09E59",
"4.	c #D09E58",
"5.	c #E4B567",
"6.	c #D9A95F",
"7.	c #CA9753",
"8.	c #80522D",
"9.	c #D4A25A",
"0.	c #C69150",
"a.	c #98734C",
"b.	c #774F33",
"c.	c #754C31",
"d.	c #8E6845",
"e.	c #8D6845",
"f.	c #906B47",
"g.	c #98744D",
"h.	c #99754D",
"i.	c #97734C",
"j.	c #99744D",
"k.	c #98744C",
"l.	c #8E6945",
"m.	c #815A3B",
"n.	c #663823",
"o.	c #946F49",
"p.	c #7B5336",
"q.	c #916C48",
"r.	c #693D27",
"s.	c #60301E",
"t.	c #602F1D",
"u.	c #61311E",
"v.	c #663924",
"w.	c #72492F",
"x.	c #71482E",
"y.	c #623220",
"z.	c #633421",
"A.	c #653722",
"B.	c #896442",
"C.	c #70472F",
"D.	c #693C26",
"E.	c #70472E",
"F.	c #7D5739",
"G.	c #8F6B47",
"H.	c #94704A",
"I.	c #95714B",
"J.	c #6C4129",
"K.	c #97734D",
"L.	c #7C5639",
"M.	c #744C32",
"N.	c #96724C",
"O.	c #6D422A",
"P.	c #8E6946",
"Q.	c #754C32",
"R.	c #71472E",
"S.	c #6C412A",
"T.	c #86613F",
"U.	c #855F3F",
"V.	c #866140",
"W.	c #8A6543",
"X.	c #886341",
"Y.	c #6A3D27",
"Z.	c #8E6A46",
"`.	c #8D6945",
" +	c #62311F",
".+	c #683B26",
"++	c #764E33",
"@+	c #85603F",
"#+	c #96714C",
"$+	c #70472D",
"%+	c #744B31",
"&+	c #94704B",
"*+	c #7D5639",
"=+	c #683C25",
"-+	c #7C5538",
";+	c #7F593A",
">+	c #7C5537",
",+	c #61311F",
"'+	c #916D49",
")+	c #754D33",
"!+	c #6D432A",
"~+	c #896443",
"{+	c #71482F",
"]+	c #653520",
"^+	c #73492F",
"/+	c #72492E",
"(+	c #734A2F",
"_+	c #673A24",
":+	c #60301F",
"<+	c #B88448",
"[+	c #C08B4B",
"}+	c #C08B4C",
"|+	c #C28D4D",
"1+	c #76482A",
"2+	c #61321F",
"3+	c #8D623A",
"4+	c #A47A4B",
"5+	c #A3794B",
"6+	c #A47A4C",
"7+	c #996E42",
"8+	c #6B3D25",
"9+	c #7C5638",
"0+	c #623E3B",
"a+	c #552B32",
"b+	c #5E3939",
"c+	c #613E3A",
"d+	c #613D3A",
"e+	c #6B4840",
"f+	c #7F5F4C",
"g+	c #7F5E4B",
"h+	c #7E5F4B",
"i+	c #633F3B",
"j+	c #522631",
"k+	c #613C3A",
"l+	c #322F85",
"m+	c #333085",
"n+	c #312E85",
"o+	c #2D2B85",
"p+	c #2D2C85",
"q+	c #2E2C85",
". + @ # $ $ % & * * * * = - ; $ $ $ $ $ ; > * * * = , ' ) ! ~ { ",
"] ^ / ( _ ( ( : < < < < [ } _ | | | | | 1 2 [ < < 3 4 ( 5 6 7 8 ",
"9 0 a b c d e f g g g g f g h h h h h h h g g g g f f i j k l m ",
"n o p q r s s s s s s s s s s s s s s s s s s s s s s t u v w x ",
"~ y z A & & & & & & & & & & & & & & & & & & & & & & & & * B ~ { ",
"~ y z C D D D D D D D D D D D D D D D D D D D D D D D D A E 7 8 ",
"n F G H I I I I I I I I I I I I I I I I I I I I I I I I J K l m ",
"9 L M N * * * * * * * * * * * * * * * * * * * * * * * * O P Q R ",
"] S z T C C C C C C C C C C C C C C C C C C C C C C C C * U n V ",
". W X C D D D D D D D D D D D D D D D D D D D D D D D D A U n V ",
". W Y H I I I I I I I I I I I I I I I I I I I I I I I I J Z Q R ",
"] S ` N * * * * * * * * * * * * * * * * * * * * * * * * O B  ...",
"+.@.z T C C C C C C C C C C C C C C C C C C C C C C C C * B +.#.",
"$.%.X D l l l l l l l l l l l l l l l l l l l l l l l l C U &.*.",
"=.-.;.>.,.,.,.'.).).).).).!.,.,.,.,.,.,.,.~.).).).).{.].^./.(._.",
":.<.[.}.|.|.|.1.2.2.2.2.2.# 3.|.|.|.|.|.4.5.2.2.2.n 6.}.7.8.9.0.",
"a.b.c.d.e.f.g.h.h.h.h.h.h.g.i.a.a.a.a.a.i.j.h.h.h.h.k.l.m.n.o.p.",
"q.r.s.t.u.v.w.x.x.x.x.x.x.x.x.x.x.x.x.x.x.x.x.x.x.x.x.y.z.A.B.C.",
"q.D.E.F.G.H.H.H.H.H.H.H.H.H.H.H.H.H.H.H.H.H.H.H.H.H.H.H.I.J.K.L.",
"i.b.M.K.I.I.I.I.I.I.I.I.I.I.I.I.I.I.I.I.I.I.I.I.I.I.I.I.N.O.P.Q.",
"H.R.S.T.U.V.W.W.W.W.W.W.W.W.W.W.W.W.W.W.W.W.W.W.W.W.W.W.X.Y.Z.Q.",
"`. +.+++@+V.W.W.W.W.W.W.W.W.W.W.W.W.W.W.W.W.W.W.W.W.W.W.X.Y.Z.Q.",
"`. +Q.#+I.I.I.I.I.I.I.I.I.I.I.I.I.I.I.I.I.I.I.I.I.I.I.I.N.O.P.Q.",
"H.$+%+I.H.&+&+&+&+&+&+&+&+&+&+&+&+&+&+&+&+&+&+&+&+&+&+H.I.J.g.*+",
"H.R.t.=+-+;+;+;+;+;+;+;+;+;+;+;+;+;+;+;+;+;+;+;+;+;+;+>+x.n.K.-+",
"`.,+%+'+i.N.N.N.N.N.N.N.N.N.N.N.N.N.N.N.N.N.N.N.N.N.N.N.g.O.K.-+",
"q.D.)+g.i.i.i.i.i.i.i.i.i.i.i.i.i.i.i.i.i.i.i.i.i.i.i.i.g.!+~+{+",
"i.b.]+^+/+/+/+/+/+/+/+/+/+/+/+/+/+/+/+/+/+/+/+/+/+/+/+/+(+_+~+{+",
"P.:+<+[+}+}+}+}+}+}+}+}+}+}+}+}+}+}+}+}+}+}+}+}+}+}+}+[+|+1+K.-+",
"`.2+3+4+5+5+6+6+6+6+6+6+6+6+6+6+6+6+6+6+6+6+6+6+6+6+6+4+7+8+i.9+",
"0+a+b+c+d+e+f+g+g+g+g+g+g+g+g+g+g+g+g+g+g+g+g+g+g+g+h+i+d+j+0+k+",
"l+m+l+l+l+n+o+p+p+p+p+p+p+p+p+p+p+p+p+p+p+p+p+p+p+p+q+l+l+m+l+l+"};
